<svg width="165" height="144" viewBox="0 0 165 144" fill="none" xmlns="http://www.w3.org/2000/svg">
<path d="M19.8381 85.1411C22.9059 86.3306 25.7096 87.502 28.5678 88.4843C31.0067 89.3227 33.524 89.8875 35.969 90.7081C36.4683 90.8759 36.8005 91.6422 37.2097 92.1323C36.5818 92.3564 35.8613 92.9198 35.3412 92.7495C31.45 91.4767 28.6491 94.227 25.5139 95.7622C22.3901 97.2922 19.3043 98.9517 16.0784 100.161C15.4578 100.394 13.9081 99.0219 13.4025 98.0181C11.0564 93.3623 8.90015 88.5901 6.74881 83.82C6.40851 83.066 6.44213 82.1103 6.30286 81.2473C6.9818 81.3503 7.68114 81.3724 8.3362 81.5701C12.0955 82.7036 15.8448 83.8793 19.8381 85.1411ZM14.7337 92.6762C15.2795 92.4283 15.8252 92.1808 16.3713 91.933C15.8272 91.5969 15.2831 91.2607 14.7394 90.9243C14.688 91.3867 14.6363 91.8496 14.7337 92.6762Z" fill="#1E1E1E"/>
<path d="M155.485 66.1865C151.212 62.4166 147.219 58.6921 143.116 55.1198C142.221 54.3407 140.861 54.2333 139.85 53.5713C139.278 53.1966 138.98 52.3227 138.558 51.6734C139.143 51.5854 139.814 51.2517 140.299 51.4529C142.213 52.2479 144.278 52.8943 145.904 54.1764C149.385 56.9185 152.629 60.0195 155.964 62.9803C156.148 63.1428 156.261 63.3997 156.445 63.5601C157.13 64.159 157.831 64.7358 158.526 65.3209C157.592 65.643 156.659 65.9652 155.485 66.1865Z" fill="#1E1E1E"/>
<path d="M37.8467 53.9974C36.5398 56.6957 35.3803 59.167 34.0791 61.5456C33.6341 62.3582 32.7234 62.553 32.6762 61.2426C32.6307 59.9623 32.8812 58.6211 33.2303 57.3841C33.6521 55.8913 34.0056 54.1532 34.9346 53.0977C37.1868 50.5401 39.7279 48.2801 42.2285 45.9998C42.5747 45.6839 43.3497 45.9311 43.9261 45.9171C43.7598 46.6039 43.787 47.494 43.394 47.942C41.6411 49.9415 39.7681 51.8148 37.8467 53.9974Z" fill="#1E1E1E"/>
<path d="M62.3508 29.9387C64.932 28.6712 67.341 27.4721 69.7669 26.315C70.1187 26.1472 70.6269 26.0049 70.9308 26.1599C71.5754 26.4897 72.133 27.0232 72.7263 27.4731C72.2578 27.847 71.8248 28.2953 71.3155 28.5826C66.9872 31.0249 62.6602 33.472 58.2881 35.8189C57.7183 36.1245 56.8971 35.8694 56.1924 35.874C56.5185 35.1808 56.6899 34.2717 57.1995 33.8345C58.7924 32.4676 60.5134 31.2785 62.3508 29.9387Z" fill="#1E1E1E"/>
<path d="M101.085 26.0022C101.667 27.1366 101.022 28.1559 99.9966 27.9331C96.5535 27.1842 93.1117 26.3966 89.7195 25.418C88.9921 25.2081 88.4415 24.1595 87.9159 23.4083C87.8707 23.344 88.6976 22.1853 89.0049 22.2447C92.2111 22.8651 95.4082 23.5649 98.5729 24.4004C99.3927 24.6171 100.09 25.3865 101.085 26.0022Z" fill="#1E1E1E"/>
<path d="M126.858 38.7061C127.108 39.062 127.333 39.2028 127.45 39.4149C127.968 40.355 129.086 41.7731 128.837 42.1858C127.998 43.5727 126.863 42.3509 126.043 41.793C123.467 40.0387 120.985 38.116 118.46 36.2712C118.252 36.1198 117.838 36.1309 117.771 35.9536C117.45 35.0894 117.213 34.1869 116.946 33.2982C117.818 33.4327 118.816 33.3138 119.536 33.748C122.005 35.2354 124.376 36.9167 126.858 38.7061Z" fill="#1E1E1E"/>
<path d="M22.5634 73.7461C24.1983 72.0932 24.9997 72.1715 24.9781 73.9888C24.9437 76.8627 24.5059 79.7616 23.9333 82.5755C23.802 83.2201 22.4283 83.5629 21.6264 84.0445C21.3904 83.3761 20.866 82.65 20.9672 82.0496C21.4281 79.3231 22.0648 76.6321 22.5634 73.7461Z" fill="#1E1E1E"/>
</svg>
