<svg width="1035" height="1523" viewBox="0 0 1035 1523" fill="none" xmlns="http://www.w3.org/2000/svg">
<path d="M152.154 334.284C146.837 337.024 141.169 338.834 136.788 342.277C132.312 345.795 128.887 350.758 125.406 355.391C123.021 358.564 120.284 362.051 119.562 365.76C118.394 371.759 118.49 378.058 118.564 384.224C118.609 387.996 119.879 391.738 120.132 395.525C120.85 406.284 121.255 417.064 121.962 427.824C122.099 429.903 123.104 431.915 123.579 433.987C123.721 434.607 123.544 435.849 123.303 435.905C122.593 436.069 121.571 436.047 121.038 435.63C118.446 433.603 116.713 431.059 116.74 427.573C116.779 422.427 117.125 417.248 116.669 412.143C115.803 402.444 114.498 392.782 113.307 383.113C111.915 371.809 115.369 362.208 121.45 352.55C128.49 341.368 139.319 336.492 149.986 330.452C160.649 324.413 171.631 324.606 182.752 326.548C189.235 327.679 193.224 333.447 197.413 338.239C199.496 340.622 201.199 343.369 203.448 345.568C207.701 349.725 212.825 348.824 218.105 347.86C230.526 345.593 238.985 338.812 242.087 326.542C243.255 321.924 243.581 316.576 242.469 312.002C239.649 300.411 235.398 289.169 232.529 277.587C231.081 271.738 231.688 265.411 230.832 259.376C229.547 250.322 231.913 242.113 236.108 234.366C240.551 226.161 247.662 220.498 255.782 216.292C259.972 214.121 265.079 214.452 268.951 216.724C275.477 220.553 282.023 224.776 287.423 230.006C297.319 239.589 315.055 238.592 321.962 226.416C324.806 221.402 329.001 217.023 331.137 211.769C334.601 203.244 333.46 194.313 330.828 185.599C328.37 177.463 325.694 169.373 323.709 161.121C322.443 155.854 326.103 145.573 332.723 142.734C338.428 140.287 344.148 137.667 350.121 136.132C353.428 135.282 357.496 135.823 360.818 136.937C366.54 138.856 371.486 135.901 376.797 135.566C383.058 135.171 384.853 129.413 388.682 126.123C390.337 124.701 391.654 122.839 392.922 121.034C393.47 120.255 393.504 119.115 393.771 118.139C392.879 118.025 391.988 117.84 391.092 117.814C389.967 117.78 388.837 117.859 387.71 117.92C386.365 117.993 385.022 118.099 383.678 118.19C384.624 117.01 385.335 115.424 386.556 114.715C394.262 110.241 402.104 106.002 409.848 101.591C411.838 100.458 413.528 98.7706 415.562 97.7509C416.81 97.1255 418.67 96.736 419.869 97.2118C422.055 98.0786 420.489 99.5774 419.984 101C417.534 107.894 417.816 114.948 419.113 122.025C419.625 124.82 420.358 127.619 420.393 130.424C420.402 131.1 417.761 132.663 416.803 132.358C410.67 130.412 404.368 128.625 399.917 123.432C397.209 120.273 396.273 123.896 395.2 125.001C392.625 127.655 390.375 130.647 388.162 133.627C384.31 138.815 378.474 140.343 372.768 140.895C365.209 141.626 357.526 141.075 349.897 141.075C339.916 141.075 331.624 146.847 329.459 156.49C328.637 160.152 329.734 164.475 330.768 168.276C332.959 176.33 336.51 184.093 337.942 192.249C339.218 199.518 338.551 207.156 335.629 214.301C331.864 223.506 325.218 230.532 317.979 236.924C315.663 238.97 312.01 239.868 308.813 240.491C297.456 242.704 288.609 237.897 280.819 230.089C278.019 227.283 274.874 224.661 271.477 222.642C263.932 218.155 257.817 219.159 250.804 224.417C243.045 230.235 238.36 238.293 236.412 247.096C234.767 254.529 235.756 262.701 236.478 270.463C237.534 281.836 243.03 292.038 246.076 302.863C248.768 312.432 250.608 322.408 245.645 332.533C238.191 347.738 223.322 354.014 208.561 352.87C202.005 352.362 198.428 347.295 194.844 342.498C190.98 337.326 187.143 331.748 180.361 330.481C175.436 329.562 170.182 329.394 165.215 330.013C160.832 330.559 156.643 332.657 152.154 334.284Z" fill="#201E1E"/>
<path d="M283.875 612.844C283.875 613.678 283.628 614.494 283.164 615.188C282.7 615.881 282.042 616.422 281.271 616.741C280.5 617.061 279.652 617.144 278.833 616.981C278.015 616.819 277.263 616.417 276.673 615.827C276.083 615.237 275.681 614.485 275.519 613.667C275.356 612.848 275.439 612 275.759 611.229C276.078 610.458 276.619 609.8 277.312 609.336C278.006 608.872 278.822 608.625 279.656 608.625C280.775 608.625 281.848 609.069 282.639 609.861C283.431 610.652 283.875 611.725 283.875 612.844ZM254.344 608.625C253.509 608.625 252.694 608.872 252 609.336C251.306 609.8 250.765 610.458 250.446 611.229C250.127 612 250.043 612.848 250.206 613.667C250.369 614.485 250.771 615.237 251.361 615.827C251.951 616.417 252.702 616.819 253.521 616.981C254.339 617.144 255.187 617.061 255.958 616.741C256.729 616.422 257.388 615.881 257.852 615.188C258.315 614.494 258.563 613.678 258.563 612.844C258.563 611.725 258.118 610.652 257.327 609.861C256.536 609.069 255.463 608.625 254.344 608.625ZM306.375 617.062V625.5C306.375 626.992 305.782 628.423 304.727 629.477C303.673 630.532 302.242 631.125 300.75 631.125H233.25C231.758 631.125 230.327 630.532 229.273 629.477C228.218 628.423 227.625 626.992 227.625 625.5V617.46C227.62 612.038 228.721 606.672 230.861 601.691C233.001 596.709 236.135 592.216 240.07 588.487L231.26 579.677C230.732 579.15 230.436 578.434 230.436 577.687C230.436 576.941 230.732 576.225 231.26 575.698C231.788 575.17 232.504 574.873 233.25 574.873C233.996 574.873 234.712 575.17 235.24 575.698L244.437 584.895C251.04 580.217 258.93 577.699 267.023 577.687C275.115 577.675 283.013 580.17 289.63 584.828L298.771 575.687C299.298 575.159 300.014 574.863 300.761 574.863C301.507 574.863 302.223 575.159 302.75 575.687C303.278 576.215 303.575 576.931 303.575 577.677C303.575 578.423 303.278 579.139 302.75 579.667L294.007 588.41C294.271 588.66 294.534 588.913 294.795 589.173C298.477 592.822 301.397 597.167 303.385 601.955C305.373 606.743 306.389 611.878 306.375 617.062ZM300.75 617.062C300.75 608.111 297.194 599.527 290.865 593.198C284.536 586.868 275.951 583.312 267 583.312H266.88C248.336 583.376 233.25 598.693 233.25 617.46V625.5H300.75V617.062Z" fill="black"/>
<path d="M635.281 317.625H628.25V306.375H635.281C637.784 306.375 640.231 305.633 642.313 304.242C644.394 302.851 646.016 300.875 646.974 298.562C647.932 296.249 648.183 293.705 647.694 291.25C647.206 288.795 646.001 286.539 644.231 284.769C642.461 282.999 640.205 281.794 637.75 281.306C635.295 280.817 632.751 281.068 630.438 282.026C628.125 282.984 626.149 284.606 624.758 286.687C623.367 288.769 622.625 291.216 622.625 293.719V300.75H611.375V293.719C611.375 291.216 610.633 288.769 609.242 286.687C607.851 284.606 605.875 282.984 603.562 282.026C601.249 281.068 598.705 280.817 596.25 281.306C593.795 281.794 591.539 282.999 589.769 284.769C587.999 286.539 586.794 288.795 586.306 291.25C585.817 293.705 586.068 296.249 587.026 298.562C587.984 300.875 589.606 302.851 591.687 304.242C593.769 305.633 596.216 306.375 598.719 306.375H605.75V317.625H598.719C596.216 317.625 593.769 318.367 591.687 319.758C589.606 321.149 587.984 323.125 587.026 325.438C586.068 327.751 585.817 330.295 586.306 332.75C586.794 335.205 587.999 337.461 589.769 339.231C591.539 341.001 593.795 342.206 596.25 342.694C598.705 343.183 601.249 342.932 603.562 341.974C605.875 341.016 607.851 339.394 609.242 337.313C610.633 335.231 611.375 332.784 611.375 330.281V323.25H622.625V330.281C622.625 332.784 623.367 335.231 624.758 337.313C626.149 339.394 628.125 341.016 630.438 341.974C632.751 342.932 635.295 343.183 637.75 342.694C640.205 342.206 642.461 341.001 644.231 339.231C646.001 337.461 647.206 335.205 647.694 332.75C648.183 330.295 647.932 327.751 646.974 325.438C646.016 323.125 644.394 321.149 642.313 319.758C640.231 318.367 637.784 317.625 635.281 317.625ZM628.25 293.719C628.25 292.328 628.662 290.969 629.435 289.812C630.208 288.656 631.306 287.755 632.591 287.223C633.875 286.691 635.289 286.551 636.653 286.823C638.017 287.094 639.27 287.764 640.253 288.747C641.236 289.73 641.906 290.983 642.177 292.347C642.449 293.711 642.309 295.125 641.777 296.409C641.245 297.694 640.344 298.792 639.188 299.565C638.031 300.338 636.672 300.75 635.281 300.75H628.25V293.719ZM591.688 293.719C591.688 291.854 592.428 290.066 593.747 288.747C595.066 287.428 596.854 286.687 598.719 286.687C600.584 286.687 602.372 287.428 603.691 288.747C605.009 290.066 605.75 291.854 605.75 293.719V300.75H598.719C596.854 300.75 595.066 300.009 593.747 298.691C592.428 297.372 591.688 295.584 591.688 293.719ZM605.75 330.281C605.75 331.672 605.338 333.031 604.565 334.188C603.792 335.344 602.694 336.245 601.409 336.777C600.125 337.309 598.711 337.449 597.347 337.177C595.983 336.906 594.73 336.236 593.747 335.253C592.764 334.27 592.094 333.017 591.823 331.653C591.551 330.289 591.691 328.875 592.223 327.591C592.755 326.306 593.656 325.208 594.812 324.435C595.969 323.662 597.328 323.25 598.719 323.25H605.75V330.281ZM611.375 306.375H622.625V317.625H611.375V306.375ZM635.281 337.312C633.416 337.312 631.628 336.572 630.309 335.253C628.991 333.934 628.25 332.146 628.25 330.281V323.25H635.281C637.146 323.25 638.934 323.991 640.253 325.309C641.572 326.628 642.313 328.416 642.313 330.281C642.313 332.146 641.572 333.934 640.253 335.253C638.934 336.572 637.146 337.312 635.281 337.312Z" fill="black"/>
<g clip-path="url(#clip0_1_2)">
<path d="M261.504 949.621C261.293 949.139 260.952 948.726 260.52 948.426C254.554 944.327 253.312 937.334 253.312 932.188C253.312 925.975 258.048 920.565 260.871 917.889C261.149 917.627 261.37 917.31 261.521 916.959C261.672 916.608 261.75 916.229 261.75 915.847C261.75 915.465 261.672 915.086 261.521 914.735C261.37 914.384 261.149 914.067 260.871 913.804C256.413 909.596 249.03 906.875 242.062 906.875C237.057 906.879 232.164 908.363 228 911.139C223.142 907.882 217.3 906.419 211.48 907.002C205.66 907.585 200.225 910.178 196.11 914.335C193.65 916.847 191.719 919.827 190.434 923.099C189.148 926.371 188.533 929.868 188.625 933.383C188.764 939.315 190.084 945.159 192.507 950.576C194.93 955.992 198.407 960.871 202.737 964.929C205.345 967.392 208.799 968.761 212.387 968.75H243.212C245.13 968.754 247.029 968.363 248.79 967.603C250.551 966.843 252.137 965.729 253.45 964.331C255.882 961.713 257.986 958.809 259.714 955.682C262.182 951.172 261.866 950.469 261.504 949.621ZM249.329 960.499C248.544 961.333 247.596 961.996 246.544 962.448C245.491 962.899 244.357 963.13 243.212 963.125H212.387C210.238 963.132 208.169 962.313 206.607 960.836C202.818 957.288 199.773 953.021 197.651 948.283C195.53 943.545 194.373 938.432 194.25 933.242C194.173 930.485 194.652 927.74 195.657 925.171C196.663 922.603 198.175 920.263 200.104 918.29C201.905 916.449 204.058 914.989 206.434 913.994C208.81 913 211.362 912.491 213.938 912.5H214.212C218.593 912.546 222.831 914.067 226.242 916.817C226.741 917.217 227.361 917.434 228 917.434C228.639 917.434 229.259 917.217 229.758 916.817C233.242 914.008 237.587 912.484 242.062 912.5C246.532 912.552 250.904 913.809 254.719 916.139C250.148 921.243 247.687 926.851 247.687 932.188C247.687 940.544 250.373 947.21 255.485 951.629C253.875 954.869 251.802 957.857 249.329 960.499ZM228.081 900.547C228.861 897.526 230.623 894.85 233.091 892.941C235.558 891.031 238.591 889.997 241.711 890H242.062C242.808 890 243.524 890.296 244.051 890.824C244.579 891.351 244.875 892.067 244.875 892.813C244.875 893.558 244.579 894.274 244.051 894.801C243.524 895.329 242.808 895.625 242.062 895.625H241.711C239.84 895.625 238.023 896.246 236.544 897.392C235.065 898.537 234.008 900.142 233.541 901.953C233.354 902.676 232.888 903.295 232.245 903.674C231.603 904.053 230.836 904.161 230.113 903.975C229.39 903.788 228.771 903.322 228.392 902.679C228.013 902.037 227.905 901.269 228.091 900.547H228.081Z" fill="black"/>
</g>
<path d="M454.75 1149.88H432.25C430.067 1149.88 427.914 1150.38 425.961 1151.36C424.008 1152.34 422.31 1153.75 421 1155.5C419.69 1153.75 417.992 1152.34 416.039 1151.36C414.086 1150.38 411.933 1149.88 409.75 1149.88H387.25C385.758 1149.88 384.327 1150.47 383.273 1151.52C382.218 1152.58 381.625 1154.01 381.625 1155.5V1200.5C381.625 1201.99 382.218 1203.42 383.273 1204.48C384.327 1205.53 385.758 1206.12 387.25 1206.12H409.75C411.988 1206.12 414.134 1207.01 415.716 1208.6C417.299 1210.18 418.188 1212.32 418.188 1214.56C418.188 1215.31 418.484 1216.02 419.011 1216.55C419.539 1217.08 420.254 1217.38 421 1217.38C421.746 1217.38 422.461 1217.08 422.989 1216.55C423.516 1216.02 423.812 1215.31 423.812 1214.56C423.812 1212.32 424.701 1210.18 426.284 1208.6C427.866 1207.01 430.012 1206.12 432.25 1206.12H454.75C456.242 1206.12 457.673 1205.53 458.727 1204.48C459.782 1203.42 460.375 1201.99 460.375 1200.5V1155.5C460.375 1154.01 459.782 1152.58 458.727 1151.52C457.673 1150.47 456.242 1149.88 454.75 1149.88ZM409.75 1200.5H387.25V1155.5H409.75C411.988 1155.5 414.134 1156.39 415.716 1157.97C417.299 1159.55 418.188 1161.7 418.188 1163.94V1203.31C415.756 1201.48 412.793 1200.5 409.75 1200.5ZM454.75 1200.5H432.25C429.207 1200.5 426.244 1201.48 423.812 1203.31V1163.94C423.812 1161.7 424.701 1159.55 426.284 1157.97C427.866 1156.39 430.012 1155.5 432.25 1155.5H454.75V1200.5Z" fill="black"/>
<path d="M825.75 705.875H803.25C801.067 705.875 798.914 706.383 796.961 707.36C795.008 708.336 793.31 709.753 792 711.5C790.69 709.753 788.992 708.336 787.039 707.36C785.086 706.383 782.933 705.875 780.75 705.875H758.25C756.758 705.875 755.327 706.468 754.273 707.523C753.218 708.577 752.625 710.008 752.625 711.5V756.5C752.625 757.992 753.218 759.423 754.273 760.477C755.327 761.532 756.758 762.125 758.25 762.125H780.75C782.988 762.125 785.134 763.014 786.716 764.596C788.299 766.179 789.188 768.325 789.188 770.562C789.188 771.308 789.484 772.024 790.011 772.551C790.539 773.079 791.254 773.375 792 773.375C792.746 773.375 793.461 773.079 793.989 772.551C794.516 772.024 794.812 771.308 794.812 770.562C794.812 768.325 795.701 766.179 797.284 764.596C798.866 763.014 801.012 762.125 803.25 762.125H825.75C827.242 762.125 828.673 761.532 829.727 760.477C830.782 759.423 831.375 757.992 831.375 756.5V711.5C831.375 710.008 830.782 708.577 829.727 707.523C828.673 706.468 827.242 705.875 825.75 705.875ZM780.75 756.5H758.25V711.5H780.75C782.988 711.5 785.134 712.389 786.716 713.971C788.299 715.554 789.188 717.7 789.188 719.938V759.312C786.756 757.483 783.793 756.495 780.75 756.5ZM825.75 756.5H803.25C800.207 756.495 797.244 757.483 794.812 759.312V719.938C794.812 717.7 795.701 715.554 797.284 713.971C798.866 712.389 801.012 711.5 803.25 711.5H825.75V756.5Z" fill="black"/>
<path d="M877.934 1094.81L849.809 1086.37C849.389 1086.24 848.945 1086.22 848.513 1086.29C848.082 1086.37 847.673 1086.54 847.322 1086.81C846.97 1087.07 846.684 1087.41 846.487 1087.8C846.29 1088.19 846.188 1088.62 846.188 1089.06V1127.12C843.307 1124.55 839.63 1123.04 835.77 1122.85C831.911 1122.66 828.102 1123.8 824.982 1126.07C821.862 1128.35 819.619 1131.64 818.627 1135.37C817.636 1139.11 817.956 1143.07 819.535 1146.6C821.114 1150.12 823.856 1153 827.302 1154.75C830.749 1156.5 834.69 1157.01 838.469 1156.2C842.248 1155.39 845.635 1153.31 848.063 1150.31C850.492 1147.3 851.815 1143.55 851.813 1139.69V1109.72L876.316 1117.07C876.736 1117.19 877.18 1117.22 877.612 1117.14C878.043 1117.07 878.452 1116.89 878.803 1116.63C879.155 1116.37 879.441 1116.03 879.638 1115.64C879.835 1115.25 879.937 1114.81 879.938 1114.38V1097.5C879.937 1096.9 879.742 1096.31 879.381 1095.82C879.02 1095.34 878.513 1094.98 877.934 1094.81ZM834.938 1150.94C832.712 1150.94 830.537 1150.28 828.687 1149.04C826.837 1147.81 825.395 1146.05 824.544 1143.99C823.692 1141.94 823.47 1139.68 823.904 1137.49C824.338 1135.31 825.409 1133.31 826.983 1131.73C828.556 1130.16 830.56 1129.09 832.743 1128.65C834.925 1128.22 837.187 1128.44 839.243 1129.29C841.298 1130.15 843.055 1131.59 844.292 1133.44C845.528 1135.29 846.188 1137.46 846.188 1139.69C846.188 1142.67 845.002 1145.53 842.892 1147.64C840.783 1149.75 837.921 1150.94 834.938 1150.94ZM874.313 1110.6L851.813 1103.85V1092.84L874.313 1099.61V1110.6Z" fill="black"/>
<path d="M576.74 634.76L559.137 617.161C564.239 611.036 566.783 603.179 566.24 595.226C565.697 587.273 562.109 579.835 556.222 574.46C550.335 569.085 542.602 566.187 534.632 566.368C526.662 566.549 519.069 569.796 513.433 575.433C507.796 581.069 504.549 588.662 504.368 596.632C504.187 604.602 507.085 612.335 512.46 618.222C517.835 624.109 525.273 627.697 533.226 628.24C541.179 628.783 549.036 626.239 555.161 621.137L572.76 638.74C573.021 639.001 573.332 639.208 573.673 639.35C574.015 639.491 574.38 639.564 574.75 639.564C575.12 639.564 575.485 639.491 575.827 639.35C576.168 639.208 576.479 639.001 576.74 638.74C577.001 638.479 577.208 638.168 577.35 637.827C577.491 637.485 577.564 637.12 577.564 636.75C577.564 636.38 577.491 636.015 577.35 635.673C577.208 635.332 577.001 635.021 576.74 634.76ZM510.062 597.375C510.062 592.369 511.547 587.475 514.328 583.312C517.11 579.15 521.063 575.905 525.688 573.989C530.314 572.073 535.403 571.572 540.313 572.549C545.223 573.526 549.734 575.936 553.274 579.476C556.814 583.016 559.224 587.527 560.201 592.437C561.178 597.347 560.677 602.436 558.761 607.062C556.845 611.687 553.6 615.64 549.438 618.422C545.275 621.203 540.381 622.687 535.375 622.687C528.664 622.68 522.23 620.011 517.485 615.265C512.739 610.52 510.07 604.086 510.062 597.375Z" fill="black"/>
<path d="M193.74 1367.76L176.137 1350.16C181.239 1344.04 183.783 1336.18 183.24 1328.23C182.697 1320.27 179.109 1312.84 173.222 1307.46C167.335 1302.09 159.602 1299.19 151.632 1299.37C143.662 1299.55 136.069 1302.8 130.433 1308.43C124.796 1314.07 121.549 1321.66 121.368 1329.63C121.187 1337.6 124.085 1345.33 129.46 1351.22C134.835 1357.11 142.273 1360.7 150.226 1361.24C158.179 1361.78 166.036 1359.24 172.161 1354.14L189.76 1371.74C190.021 1372 190.332 1372.21 190.673 1372.35C191.015 1372.49 191.38 1372.56 191.75 1372.56C192.12 1372.56 192.485 1372.49 192.827 1372.35C193.168 1372.21 193.479 1372 193.74 1371.74C194.001 1371.48 194.208 1371.17 194.35 1370.83C194.491 1370.49 194.564 1370.12 194.564 1369.75C194.564 1369.38 194.491 1369.01 194.35 1368.67C194.208 1368.33 194.001 1368.02 193.74 1367.76ZM127.062 1330.38C127.062 1325.37 128.547 1320.47 131.328 1316.31C134.11 1312.15 138.063 1308.91 142.688 1306.99C147.314 1305.07 152.403 1304.57 157.313 1305.55C162.223 1306.53 166.734 1308.94 170.274 1312.48C173.814 1316.02 176.224 1320.53 177.201 1325.44C178.178 1330.35 177.677 1335.44 175.761 1340.06C173.845 1344.69 170.6 1348.64 166.438 1351.42C162.275 1354.2 157.381 1355.69 152.375 1355.69C145.664 1355.68 139.23 1353.01 134.485 1348.27C129.739 1343.52 127.07 1337.09 127.062 1330.38Z" fill="black"/>
<path d="M883.404 272.148C882.079 270.762 880.707 269.335 880.191 268.08C879.713 266.93 879.684 265.025 879.656 263.179C879.604 259.748 879.547 255.86 876.844 253.156C874.14 250.453 870.252 250.396 866.821 250.344C864.975 250.316 863.07 250.287 861.92 249.809C860.668 249.293 859.237 247.921 857.852 246.596C855.427 244.265 852.67 241.625 849 241.625C845.33 241.625 842.577 244.265 840.148 246.596C838.762 247.921 837.335 249.293 836.08 249.809C834.938 250.287 833.025 250.316 831.179 250.344C827.748 250.396 823.86 250.453 821.156 253.156C818.453 255.86 818.414 259.748 818.344 263.179C818.316 265.025 818.287 266.93 817.809 268.08C817.293 269.332 815.921 270.762 814.596 272.148C812.265 274.573 809.625 277.33 809.625 281C809.625 284.67 812.265 287.423 814.596 289.852C815.921 291.237 817.293 292.665 817.809 293.92C818.287 295.07 818.316 296.975 818.344 298.821C818.396 302.252 818.453 306.14 821.156 308.844C823.86 311.547 827.748 311.604 831.179 311.656C833.025 311.684 834.93 311.713 836.08 312.191C837.332 312.707 838.762 314.079 840.148 315.404C842.573 317.735 845.33 320.375 849 320.375C852.67 320.375 855.423 317.735 857.852 315.404C859.237 314.079 860.665 312.707 861.92 312.191C863.07 311.713 864.975 311.684 866.821 311.656C870.252 311.604 874.14 311.547 876.844 308.844C879.547 306.14 879.604 302.252 879.656 298.821C879.684 296.975 879.713 295.07 880.191 293.92C880.707 292.668 882.079 291.237 883.404 289.852C885.735 287.427 888.375 284.67 888.375 281C888.375 277.33 885.735 274.577 883.404 272.148ZM879.343 285.961C877.659 287.718 875.916 289.536 874.991 291.768C874.105 293.913 874.066 296.363 874.031 298.736C873.996 301.197 873.957 303.774 872.864 304.864C871.771 305.954 869.211 305.996 866.736 306.031C864.363 306.066 861.913 306.105 859.768 306.991C857.536 307.916 855.718 309.659 853.961 311.343C852.203 313.027 850.406 314.75 849 314.75C847.594 314.75 845.783 313.02 844.039 311.343C842.296 309.666 840.464 307.916 838.232 306.991C836.087 306.105 833.637 306.066 831.264 306.031C828.803 305.996 826.226 305.957 825.136 304.864C824.046 303.771 824.004 301.211 823.969 298.736C823.934 296.363 823.895 293.913 823.009 291.768C822.084 289.536 820.341 287.718 818.657 285.961C816.973 284.203 815.25 282.406 815.25 281C815.25 279.594 816.98 277.783 818.657 276.039C820.334 274.296 822.084 272.464 823.009 270.232C823.895 268.087 823.934 265.637 823.969 263.264C824.004 260.803 824.043 258.226 825.136 257.136C826.229 256.046 828.789 256.004 831.264 255.969C833.637 255.934 836.087 255.895 838.232 255.009C840.464 254.084 842.282 252.341 844.039 250.657C845.797 248.973 847.594 247.25 849 247.25C850.406 247.25 852.217 248.98 853.961 250.657C855.704 252.334 857.536 254.084 859.768 255.009C861.913 255.895 864.363 255.934 866.736 255.969C869.197 256.004 871.774 256.043 872.864 257.136C873.954 258.229 873.996 260.789 874.031 263.264C874.066 265.637 874.105 268.087 874.991 270.232C875.916 272.464 877.659 274.282 879.343 276.039C881.027 277.797 882.75 279.594 882.75 281C882.75 282.406 881.02 284.217 879.343 285.961ZM865.052 270.573C865.314 270.834 865.521 271.144 865.663 271.485C865.804 271.827 865.877 272.193 865.877 272.562C865.877 272.932 865.804 273.298 865.663 273.64C865.521 273.981 865.314 274.291 865.052 274.552L845.365 294.24C845.104 294.501 844.793 294.709 844.452 294.85C844.111 294.992 843.745 295.065 843.375 295.065C843.005 295.065 842.639 294.992 842.298 294.85C841.957 294.709 841.646 294.501 841.385 294.24L832.948 285.802C832.42 285.275 832.123 284.559 832.123 283.812C832.123 283.066 832.42 282.35 832.948 281.823C833.475 281.295 834.191 280.998 834.938 280.998C835.684 280.998 836.4 281.295 836.927 281.823L843.375 288.274L861.073 270.573C861.334 270.311 861.644 270.104 861.985 269.962C862.327 269.821 862.693 269.748 863.062 269.748C863.432 269.748 863.798 269.821 864.14 269.962C864.481 270.104 864.791 270.311 865.052 270.573Z" fill="black"/>
<path d="M770.586 877.369C762.539 877.557 755.117 877.551 747.721 877.992C741.41 878.368 735.138 879.391 728.827 879.81C727.538 879.895 726.154 878.569 724.814 877.894C726.085 876.868 727.297 875.044 728.636 874.946C738.653 874.209 742.914 865.935 748.925 859.933C754.914 853.952 760.711 847.731 767.194 842.338C768.441 841.3 773.126 842.833 775.102 844.508C784.269 852.276 793.091 860.457 801.9 868.638C803.293 869.931 803.984 871.979 805 873.679C803.348 874.059 801.714 874.628 800.041 874.787C790.441 875.702 780.83 876.519 770.586 877.369ZM776.322 856.962C775.26 857.966 774.198 858.969 773.135 859.973C774.663 860.204 776.191 860.435 777.718 860.667C777.465 859.645 777.212 858.622 776.322 856.962Z" fill="black"/>
<path d="M472.332 1036.8C485.24 1041 497.463 1045.35 509.82 1049.28C512.514 1050.14 515.743 1049.17 518.613 1049.68C520.236 1049.97 521.629 1051.55 523.126 1052.55C521.844 1053.25 520.563 1054.55 519.28 1054.55C514.216 1054.55 508.925 1055.01 504.134 1053.73C493.885 1051 483.893 1047.31 473.802 1043.99C473.248 1043.81 472.78 1043.37 472.226 1043.19C470.161 1042.53 468.077 1041.93 466 1041.3C467.898 1039.8 469.796 1038.3 472.332 1036.8Z" fill="black"/>
<path d="M754.016 958.996C754.866 952.147 755.558 945.907 756.652 939.738C757.027 937.63 758.975 936.417 760.138 939.143C761.273 941.807 761.773 944.86 761.961 947.78C762.187 951.304 762.768 955.286 761.47 958.333C758.322 965.717 754.267 972.727 750.322 979.744C749.776 980.716 747.786 980.876 746.465 981.413C746.297 979.816 745.518 977.96 746.066 976.668C748.509 970.902 751.331 965.297 754.016 958.996Z" fill="black"/>
<path d="M716.735 1031.38C711.789 1036.33 707.186 1040.98 702.51 1045.56C701.832 1046.22 700.772 1046.97 699.945 1046.91C698.19 1046.78 696.472 1046.14 694.739 1045.72C695.521 1044.51 696.161 1043.19 697.107 1042.13C705.146 1033.16 713.178 1024.19 721.395 1015.38C722.466 1014.23 724.569 1014.05 726.194 1013.42C725.998 1015.17 726.333 1017.24 725.507 1018.61C722.925 1022.9 719.904 1026.93 716.735 1031.38Z" fill="black"/>
<path d="M630.381 1073.78C628.122 1071.9 628.794 1069.18 631.343 1068.75C639.903 1067.3 648.491 1065.93 657.118 1065.01C658.968 1064.82 661.084 1066.55 662.903 1067.67C663.059 1067.77 662.08 1070.94 661.322 1071.09C653.413 1072.6 645.461 1073.94 637.475 1074.96C635.406 1075.22 633.175 1074.21 630.381 1073.78Z" fill="black"/>
<path d="M560.596 1069.64C559.733 1069.11 559.099 1069.01 558.658 1068.66C556.706 1067.13 552.981 1065.12 553.225 1064.03C554.047 1060.36 557.654 1061.95 559.997 1062.4C567.363 1063.84 574.644 1065.72 581.965 1067.39C582.567 1067.53 583.515 1067.14 583.811 1067.45C585.25 1069 586.522 1070.69 587.854 1072.34C585.732 1072.82 583.52 1073.95 581.506 1073.67C574.605 1072.7 567.773 1071.23 560.596 1069.64Z" fill="black"/>
<path d="M773.453 903.834C771.004 908.764 769.089 909.304 767.677 905.447C765.445 899.347 764.125 892.839 763.185 886.392C762.97 884.915 765.869 882.982 767.335 881.259C768.418 882.463 770.214 883.535 770.463 884.892C771.591 891.056 772.284 897.3 773.453 903.834Z" fill="black"/>
<defs>
<clipPath id="clip0_1_2">
<rect width="90" height="90" fill="white" transform="translate(183 890)"/>
</clipPath>
</defs>
</svg>
