<svg width="80" height="66" viewBox="0 0 80 66" fill="none" xmlns="http://www.w3.org/2000/svg">
<path d="M6 16.2C4.52 16.2 3.34667 15.8 2.48 15C1.62667 14.2 1.2 13.1067 1.2 11.72V1.4H4.2V11.7C4.2 12.3133 4.35333 12.7867 4.66 13.12C4.98 13.44 5.42667 13.6 6 13.6C6.56 13.6 7 13.44 7.32 13.12C7.64 12.7867 7.8 12.3133 7.8 11.7V1.4H10.8V11.72C10.8 13.0933 10.3667 14.1867 9.5 15C8.64667 15.8 7.48 16.2 6 16.2ZM13.5922 16V13.4H16.4922V4H13.5922V1.4H22.3922V4H19.4922V13.4H22.3922V16H13.5922ZM6 34.2C4.52 34.2 3.34667 33.8 2.48 33C1.62667 32.2 1.2 31.1067 1.2 29.72V19.4H4.2V29.7C4.2 30.3133 4.35333 30.7867 4.66 31.12C4.98 31.44 5.42667 31.6 6 31.6C6.56 31.6 7 31.44 7.32 31.12C7.64 30.7867 7.8 30.3133 7.8 29.7V19.4H10.8V29.72C10.8 31.0933 10.3667 32.1867 9.5 33C8.64667 33.8 7.48 34.2 6 34.2ZM12.3922 34L16.3122 26.46L12.6522 19.4H15.9522L17.4722 22.6C17.6189 22.8933 17.7389 23.16 17.8322 23.4C17.9389 23.64 18.0055 23.8133 18.0322 23.92C18.0589 23.8133 18.1189 23.64 18.2122 23.4C18.3055 23.16 18.4189 22.8933 18.5522 22.6L20.1122 19.4H23.3322L19.6722 26.46L23.5922 34H20.2922L18.5322 30.4C18.3989 30.1067 18.2789 29.8333 18.1722 29.58C18.0655 29.3267 17.9855 29.1333 17.9322 29C17.8922 29.1333 17.8255 29.3267 17.7322 29.58C17.6389 29.8333 17.5189 30.1067 17.3722 30.4L15.6122 34H12.3922ZM29.9844 34.2C29.371 34.2 28.8777 34.02 28.5044 33.66C28.1444 33.2867 27.9644 32.7933 27.9644 32.18C27.9644 31.5533 28.1444 31.06 28.5044 30.7C28.8777 30.34 29.371 30.16 29.9844 30.16C30.611 30.16 31.1044 30.34 31.4644 30.7C31.8244 31.06 32.0044 31.5533 32.0044 32.18C32.0044 32.7933 31.8244 33.2867 31.4644 33.66C31.1044 34.02 30.611 34.2 29.9844 34.2Z" fill="#1E1E1E"/>
<path d="M41.26 64V49.4H46C47.0133 49.4 47.8933 49.5933 48.64 49.98C49.4 50.3667 49.9867 50.9133 50.4 51.62C50.8267 52.3133 51.04 53.1333 51.04 54.08V59.3C51.04 60.2333 50.8267 61.0533 50.4 61.76C49.9867 62.4667 49.4 63.02 48.64 63.42C47.8933 63.8067 47.0133 64 46 64H41.26ZM44.26 61.2H46C46.6133 61.2 47.1067 61.0267 47.48 60.68C47.8533 60.3333 48.04 59.8733 48.04 59.3V54.08C48.04 53.52 47.8533 53.0667 47.48 52.72C47.1067 52.3733 46.6133 52.2 46 52.2H44.26V61.2ZM53.5922 64V61.4H56.4922V52H53.5922V49.4H62.3922V52H59.4922V61.4H62.3922V64H53.5922ZM65.3044 64V49.4H70.2844C71.311 49.4 72.2044 49.5933 72.9644 49.98C73.7377 50.3667 74.331 50.9067 74.7444 51.6C75.171 52.2933 75.3844 53.1067 75.3844 54.04C75.3844 54.96 75.171 55.7733 74.7444 56.48C74.3177 57.1733 73.7244 57.7133 72.9644 58.1C72.2044 58.4867 71.311 58.68 70.2844 58.68H68.3044V64H65.3044ZM68.3044 55.98H70.2844C70.9244 55.98 71.431 55.8067 71.8044 55.46C72.191 55.1 72.3844 54.6267 72.3844 54.04C72.3844 53.4533 72.191 52.9867 71.8044 52.64C71.431 52.28 70.9244 52.1 70.2844 52.1H68.3044V55.98Z" fill="#CD5443"/>
<rect x="15.1608" y="6.45129" width="48.7738" height="53.0441" rx="1.5" stroke="#1E1E1E"/>
</svg>
