<svg width="438" height="357" viewBox="0 0 438 357" fill="none" xmlns="http://www.w3.org/2000/svg">
<mask id="path-1-inside-1_76_17" fill="white">
<rect x="0.630127" y="0.195557" width="311.086" height="337.776" rx="2"/>
</mask>
<rect x="0.630127" y="0.195557" width="311.086" height="337.776" rx="2" fill="#E35B5B" stroke="black" stroke-width="6" mask="url(#path-1-inside-1_76_17)"/>
<path d="M193.56 357V269.4H222C228.08 269.4 233.36 270.56 237.84 272.88C242.4 275.2 245.92 278.48 248.4 282.72C250.96 286.88 252.24 291.8 252.24 297.48V328.8C252.24 334.4 250.96 339.32 248.4 343.56C245.92 347.8 242.4 351.12 237.84 353.52C233.36 355.84 228.08 357 222 357H193.56ZM211.56 340.2H222C225.68 340.2 228.64 339.16 230.88 337.08C233.12 335 234.24 332.24 234.24 328.8V297.48C234.24 294.12 233.12 291.4 230.88 289.32C228.64 287.24 225.68 286.2 222 286.2H211.56V340.2ZM267.553 357V341.4H284.953V285H267.553V269.4H320.353V285H302.953V341.4H320.353V357H267.553ZM337.826 357V269.4H367.706C373.866 269.4 379.226 270.56 383.786 272.88C388.426 275.2 391.986 278.44 394.466 282.6C397.026 286.76 398.306 291.64 398.306 297.24C398.306 302.76 397.026 307.64 394.466 311.88C391.906 316.04 388.346 319.28 383.786 321.6C379.226 323.92 373.866 325.08 367.706 325.08H355.826V357H337.826ZM355.826 308.88H367.706C371.546 308.88 374.586 307.84 376.826 305.76C379.146 303.6 380.306 300.76 380.306 297.24C380.306 293.72 379.146 290.92 376.826 288.84C374.586 286.68 371.546 285.6 367.706 285.6H355.826V308.88Z" fill="#020202"/>
</svg>
