<svg width="831" height="449" viewBox="0 0 831 449" fill="none" xmlns="http://www.w3.org/2000/svg">
<g clip-path="url(#clip0_20_2)">
<path d="M474 68.75C474 69.4917 473.78 70.2167 473.368 70.8334C472.956 71.4501 472.37 71.9307 471.685 72.2146C471 72.4984 470.246 72.5727 469.518 72.428C468.791 72.2833 468.123 71.9261 467.598 71.4017C467.074 70.8772 466.717 70.209 466.572 69.4816C466.427 68.7542 466.502 68.0002 466.785 67.315C467.069 66.6297 467.55 66.0441 468.167 65.632C468.783 65.22 469.508 65 470.25 65C471.245 65 472.198 65.3951 472.902 66.0984C473.605 66.8016 474 67.7555 474 68.75ZM447.75 65C447.008 65 446.283 65.22 445.667 65.632C445.05 66.0441 444.569 66.6297 444.285 67.315C444.002 68.0002 443.927 68.7542 444.072 69.4816C444.217 70.209 444.574 70.8772 445.098 71.4017C445.623 71.9261 446.291 72.2833 447.018 72.428C447.746 72.5727 448.5 72.4984 449.185 72.2146C449.87 71.9307 450.456 71.4501 450.868 70.8334C451.28 70.2167 451.5 69.4917 451.5 68.75C451.5 67.7555 451.105 66.8016 450.402 66.0984C449.698 65.3951 448.745 65 447.75 65ZM494 72.5V80C494 81.3261 493.473 82.5979 492.536 83.5356C491.598 84.4732 490.326 85 489 85H429C427.674 85 426.402 84.4732 425.464 83.5356C424.527 82.5979 424 81.3261 424 80V72.8531C423.996 68.0338 424.974 63.2643 426.876 58.8362C428.779 54.4081 431.564 50.4146 435.063 47.1L427.231 39.2688C426.762 38.7997 426.499 38.1634 426.499 37.5C426.499 36.8366 426.762 36.2004 427.231 35.7313C427.7 35.2622 428.337 34.9986 429 34.9986C429.663 34.9986 430.3 35.2622 430.769 35.7313L438.944 43.9063C444.814 39.7484 451.827 37.5103 459.02 37.4997C466.214 37.4891 473.234 39.7064 479.116 43.8469L487.241 35.7219C487.71 35.2528 488.346 34.9893 489.009 34.9893C489.673 34.9893 490.309 35.2528 490.778 35.7219C491.247 36.191 491.511 36.8272 491.511 37.4906C491.511 38.1541 491.247 38.7903 490.778 39.2594L483.006 47.0313C483.241 47.2531 483.475 47.4781 483.706 47.7094C486.979 50.9531 489.575 54.8153 491.342 59.0712C493.109 63.3271 494.013 67.8918 494 72.5ZM489 72.5C489 64.5435 485.839 56.9129 480.213 51.2868C474.587 45.6607 466.957 42.5 459 42.5H458.894C442.409 42.5563 429 56.1719 429 72.8531V80H489V72.5Z" fill="black" fill-opacity="0.4"/>
<path d="M790 207.75C790 208.492 789.78 209.217 789.368 209.833C788.956 210.45 788.37 210.931 787.685 211.215C787 211.498 786.246 211.573 785.518 211.428C784.791 211.283 784.123 210.926 783.598 210.402C783.074 209.877 782.717 209.209 782.572 208.482C782.427 207.754 782.502 207 782.785 206.315C783.069 205.63 783.55 205.044 784.167 204.632C784.783 204.22 785.508 204 786.25 204C787.245 204 788.198 204.395 788.902 205.098C789.605 205.802 790 206.755 790 207.75ZM763.75 204C763.008 204 762.283 204.22 761.667 204.632C761.05 205.044 760.569 205.63 760.285 206.315C760.002 207 759.927 207.754 760.072 208.482C760.217 209.209 760.574 209.877 761.098 210.402C761.623 210.926 762.291 211.283 763.018 211.428C763.746 211.573 764.5 211.498 765.185 211.215C765.87 210.931 766.456 210.45 766.868 209.833C767.28 209.217 767.5 208.492 767.5 207.75C767.5 206.755 767.105 205.802 766.402 205.098C765.698 204.395 764.745 204 763.75 204ZM810 211.5V219C810 220.326 809.473 221.598 808.536 222.536C807.598 223.473 806.326 224 805 224H745C743.674 224 742.402 223.473 741.464 222.536C740.527 221.598 740 220.326 740 219V211.853C739.996 207.034 740.974 202.264 742.876 197.836C744.779 193.408 747.564 189.415 751.063 186.1L743.231 178.269C742.762 177.8 742.499 177.163 742.499 176.5C742.499 175.837 742.762 175.2 743.231 174.731C743.7 174.262 744.337 173.999 745 173.999C745.663 173.999 746.3 174.262 746.769 174.731L754.944 182.906C760.814 178.748 767.827 176.51 775.02 176.5C782.214 176.489 789.234 178.706 795.116 182.847L803.241 174.722C803.71 174.253 804.346 173.989 805.009 173.989C805.673 173.989 806.309 174.253 806.778 174.722C807.247 175.191 807.511 175.827 807.511 176.491C807.511 177.154 807.247 177.79 806.778 178.259L799.006 186.031C799.241 186.253 799.475 186.478 799.706 186.709C802.979 189.953 805.575 193.815 807.342 198.071C809.109 202.327 810.013 206.892 810 211.5ZM805 211.5C805 203.544 801.839 195.913 796.213 190.287C790.587 184.661 782.957 181.5 775 181.5H774.894C758.409 181.556 745 195.172 745 211.853V219H805V211.5Z" fill="black" fill-opacity="0.4"/>
<path d="M639 388.75C639 389.492 638.78 390.217 638.368 390.833C637.956 391.45 637.37 391.931 636.685 392.215C636 392.498 635.246 392.573 634.518 392.428C633.791 392.283 633.123 391.926 632.598 391.402C632.074 390.877 631.717 390.209 631.572 389.482C631.427 388.754 631.502 388 631.785 387.315C632.069 386.63 632.55 386.044 633.167 385.632C633.783 385.22 634.508 385 635.25 385C636.245 385 637.198 385.395 637.902 386.098C638.605 386.802 639 387.755 639 388.75ZM612.75 385C612.008 385 611.283 385.22 610.667 385.632C610.05 386.044 609.569 386.63 609.285 387.315C609.002 388 608.927 388.754 609.072 389.482C609.217 390.209 609.574 390.877 610.098 391.402C610.623 391.926 611.291 392.283 612.018 392.428C612.746 392.573 613.5 392.498 614.185 392.215C614.87 391.931 615.456 391.45 615.868 390.833C616.28 390.217 616.5 389.492 616.5 388.75C616.5 387.755 616.105 386.802 615.402 386.098C614.698 385.395 613.745 385 612.75 385ZM659 392.5V400C659 401.326 658.473 402.598 657.536 403.536C656.598 404.473 655.326 405 654 405H594C592.674 405 591.402 404.473 590.464 403.536C589.527 402.598 589 401.326 589 400V392.853C588.996 388.034 589.974 383.264 591.876 378.836C593.779 374.408 596.564 370.415 600.063 367.1L592.231 359.269C591.762 358.8 591.499 358.163 591.499 357.5C591.499 356.837 591.762 356.2 592.231 355.731C592.7 355.262 593.337 354.999 594 354.999C594.663 354.999 595.3 355.262 595.769 355.731L603.944 363.906C609.814 359.748 616.827 357.51 624.02 357.5C631.214 357.489 638.234 359.706 644.116 363.847L652.241 355.722C652.71 355.253 653.346 354.989 654.009 354.989C654.673 354.989 655.309 355.253 655.778 355.722C656.247 356.191 656.511 356.827 656.511 357.491C656.511 358.154 656.247 358.79 655.778 359.259L648.006 367.031C648.241 367.253 648.475 367.478 648.706 367.709C651.979 370.953 654.575 374.815 656.342 379.071C658.109 383.327 659.013 387.892 659 392.5ZM654 392.5C654 384.544 650.839 376.913 645.213 371.287C639.587 365.661 631.957 362.5 624 362.5H623.894C607.409 362.556 594 376.172 594 392.853V400H654V392.5Z" fill="black" fill-opacity="0.4"/>
<g clip-path="url(#clip1_20_2)">
<path d="M820.781 67.9969C820.594 67.5684 820.291 67.2006 819.906 66.9344C814.603 63.2906 813.5 57.075 813.5 52.5C813.5 46.9781 817.71 42.1688 820.219 39.7906C820.466 39.557 820.662 39.2755 820.797 38.9633C820.931 38.6512 821 38.3149 821 37.975C821 37.6351 820.931 37.2989 820.797 36.9867C820.662 36.6745 820.466 36.393 820.219 36.1594C816.256 32.4188 809.694 30 803.5 30C799.051 30.0034 794.702 31.3222 791 33.7906C786.682 30.8949 781.489 29.5944 776.316 30.1128C771.142 30.6313 766.311 32.9362 762.653 36.6313C760.467 38.8637 758.751 41.5129 757.608 44.4214C756.465 47.33 755.918 50.4385 756 53.5625C756.124 58.8353 757.297 64.0305 759.451 68.845C761.604 73.6594 764.696 77.9966 768.544 81.6031C770.862 83.7933 773.933 85.0094 777.122 85H804.522C806.227 85.0032 807.914 84.6563 809.48 83.9806C811.045 83.3048 812.455 82.3148 813.622 81.0719C815.784 78.7453 817.654 76.1637 819.191 73.3844C821.385 69.375 821.103 68.75 820.781 67.9969ZM809.96 77.6656C809.262 78.4067 808.419 78.9963 807.483 79.3979C806.548 79.7995 805.54 80.0044 804.522 80H777.122C775.212 80.0061 773.373 79.2778 771.985 77.9656C768.616 74.8119 765.91 71.0185 764.024 66.8071C762.138 62.5957 761.11 58.0506 761 53.4375C760.932 50.9865 761.357 48.5467 762.251 46.2634C763.145 43.9802 764.489 41.9001 766.203 40.1469C767.805 38.5106 769.718 37.2121 771.831 36.3281C773.943 35.444 776.211 34.9924 778.5 35H778.744C782.639 35.041 786.406 36.3929 789.438 38.8375C789.881 39.1925 790.432 39.3859 791 39.3859C791.568 39.3859 792.119 39.1925 792.563 38.8375C795.66 36.3405 799.522 34.9854 803.5 35C807.473 35.0461 811.36 36.1635 814.75 38.2344C810.688 42.7719 808.5 47.7563 808.5 52.5C808.5 59.9281 810.888 65.8531 815.431 69.7813C814.001 72.6615 812.157 75.3176 809.96 77.6656ZM791.072 24.375C791.765 21.6897 793.332 19.3113 795.525 17.614C797.719 15.9168 800.414 14.9972 803.188 15H803.5C804.163 15 804.799 15.2634 805.268 15.7322C805.737 16.2011 806 16.837 806 17.5C806 18.163 805.737 18.7989 805.268 19.2678C804.799 19.7366 804.163 20 803.5 20H803.188C801.525 19.9999 799.909 20.5523 798.595 21.5705C797.28 22.5887 796.341 24.015 795.925 25.625C795.759 26.2673 795.345 26.8175 794.774 27.1545C794.203 27.4915 793.521 27.5876 792.878 27.4219C792.236 27.2561 791.686 26.842 791.349 26.2706C791.012 25.6992 790.916 25.0173 791.081 24.375H791.072Z" fill="black" fill-opacity="0.4"/>
</g>
<g clip-path="url(#clip2_20_2)">
<path d="M79.7815 69.9969C79.594 69.5684 79.291 69.2006 78.9065 68.9344C73.6033 65.2906 72.5002 59.075 72.5002 54.5C72.5002 48.9781 76.7096 44.1688 79.219 41.7906C79.4658 41.557 79.6624 41.2755 79.7967 40.9633C79.9311 40.6512 80.0004 40.3149 80.0004 39.975C80.0004 39.6351 79.9311 39.2989 79.7967 38.9867C79.6624 38.6745 79.4658 38.393 79.219 38.1594C75.2565 34.4188 68.694 32 62.5002 32C58.0509 32.0034 53.702 33.3222 50.0002 35.7906C45.6818 32.8949 40.4894 31.5944 35.3159 32.1128C30.1424 32.6313 25.3113 34.9362 21.6533 38.6313C19.4666 40.8637 17.7508 43.5129 16.6079 46.4214C15.465 49.33 14.9183 52.4385 15.0002 55.5625C15.1239 60.8353 16.2969 66.0305 18.4506 70.845C20.6043 75.6594 23.6956 79.9966 27.544 83.6031C29.8621 85.7933 32.933 87.0094 36.1221 87H63.5221C65.227 87.0032 66.9145 86.6563 68.4798 85.9806C70.0452 85.3048 71.4551 84.3148 72.6221 83.0719C74.7839 80.7453 76.654 78.1637 78.1908 75.3844C80.3846 71.375 80.1033 70.75 79.7815 69.9969ZM68.9596 79.6656C68.2617 80.4067 67.4188 80.9963 66.4834 81.3979C65.548 81.7995 64.54 82.0044 63.5221 82H36.1221C34.212 82.0061 32.3726 81.2778 30.9846 79.9656C27.6161 76.8119 24.9097 73.0185 23.0238 68.8071C21.1378 64.5957 20.1099 60.0506 20.0002 55.4375C19.9318 52.9865 20.3573 50.5467 21.2511 48.2634C22.145 45.9802 23.4891 43.9001 25.2033 42.1469C26.805 40.5106 28.7184 39.2121 30.8305 38.3281C32.9426 37.444 35.2106 36.9924 37.5002 37H37.744C41.6385 37.041 45.4057 38.3929 48.4377 40.8375C48.8811 41.1925 49.4322 41.3859 50.0002 41.3859C50.5682 41.3859 51.1193 41.1925 51.5627 40.8375C54.6598 38.3405 58.5219 36.9854 62.5002 37C66.4729 37.0461 70.3596 38.1635 73.7502 40.2344C69.6877 44.7719 67.5002 49.7563 67.5002 54.5C67.5002 61.9281 69.8877 67.8531 74.4315 71.7813C73.0006 74.6615 71.1572 77.3176 68.9596 79.6656ZM50.0721 26.375C50.7654 23.6897 52.3321 21.3113 54.5255 19.614C56.7188 17.9168 59.4144 16.9972 62.1877 17H62.5002C63.1632 17 63.7991 17.2634 64.268 17.7322C64.7368 18.2011 65.0002 18.837 65.0002 19.5C65.0002 20.163 64.7368 20.7989 64.268 21.2678C63.7991 21.7366 63.1632 22 62.5002 22H62.1877C60.5249 21.9999 58.9091 22.5523 57.5945 23.5705C56.2799 24.5887 55.3409 26.015 54.9252 27.625C54.7594 28.2673 54.3453 28.8175 53.7739 29.1545C53.2025 29.4915 52.5207 29.5876 51.8783 29.4219C51.236 29.2561 50.6858 28.842 50.3489 28.2706C50.0119 27.6992 49.9157 27.0173 50.0815 26.375H50.0721Z" fill="black" fill-opacity="0.4"/>
</g>
<g clip-path="url(#clip3_20_2)">
<path d="M799.781 394.997C799.594 394.568 799.291 394.201 798.906 393.934C793.603 390.291 792.5 384.075 792.5 379.5C792.5 373.978 796.71 369.169 799.219 366.791C799.466 366.557 799.662 366.276 799.797 365.963C799.931 365.651 800 365.315 800 364.975C800 364.635 799.931 364.299 799.797 363.987C799.662 363.675 799.466 363.393 799.219 363.159C795.256 359.419 788.694 357 782.5 357C778.051 357.003 773.702 358.322 770 360.791C765.682 357.895 760.489 356.594 755.316 357.113C750.142 357.631 745.311 359.936 741.653 363.631C739.467 365.864 737.751 368.513 736.608 371.421C735.465 374.33 734.918 377.439 735 380.563C735.124 385.835 736.297 391.031 738.451 395.845C740.604 400.659 743.696 404.997 747.544 408.603C749.862 410.793 752.933 412.009 756.122 412H783.522C785.227 412.003 786.914 411.656 788.48 410.981C790.045 410.305 791.455 409.315 792.622 408.072C794.784 405.745 796.654 403.164 798.191 400.384C800.385 396.375 800.103 395.75 799.781 394.997ZM788.96 404.666C788.262 405.407 787.419 405.996 786.483 406.398C785.548 406.799 784.54 407.004 783.522 407H756.122C754.212 407.006 752.373 406.278 750.985 404.966C747.616 401.812 744.91 398.019 743.024 393.807C741.138 389.596 740.11 385.051 740 380.438C739.932 377.986 740.357 375.547 741.251 373.263C742.145 370.98 743.489 368.9 745.203 367.147C746.805 365.511 748.718 364.212 750.831 363.328C752.943 362.444 755.211 361.992 757.5 362H757.744C761.639 362.041 765.406 363.393 768.438 365.838C768.881 366.193 769.432 366.386 770 366.386C770.568 366.386 771.119 366.193 771.563 365.838C774.66 363.34 778.522 361.985 782.5 362C786.473 362.046 790.36 363.164 793.75 365.234C789.688 369.772 787.5 374.756 787.5 379.5C787.5 386.928 789.888 392.853 794.431 396.781C793.001 399.661 791.157 402.318 788.96 404.666ZM770.072 351.375C770.765 348.69 772.332 346.311 774.525 344.614C776.719 342.917 779.414 341.997 782.188 342H782.5C783.163 342 783.799 342.263 784.268 342.732C784.737 343.201 785 343.837 785 344.5C785 345.163 784.737 345.799 784.268 346.268C783.799 346.737 783.163 347 782.5 347H782.188C780.525 347 778.909 347.552 777.595 348.571C776.28 349.589 775.341 351.015 774.925 352.625C774.759 353.267 774.345 353.817 773.774 354.154C773.203 354.491 772.521 354.588 771.878 354.422C771.236 354.256 770.686 353.842 770.349 353.271C770.012 352.699 769.916 352.017 770.081 351.375H770.072Z" fill="black" fill-opacity="0.4"/>
</g>
<path d="M170.963 139.194L140.963 126.694C140.658 126.565 140.331 126.499 140 126.499C139.669 126.499 139.342 126.565 139.038 126.694L109.038 139.194C108.53 139.405 108.106 139.779 107.832 140.255C107.558 140.732 107.449 141.286 107.522 141.831L112.522 179.331C112.576 179.736 112.728 180.121 112.965 180.453C113.202 180.786 113.516 181.055 113.881 181.237L138.881 193.737C139.229 193.911 139.612 194.002 140 194.002C140.388 194.002 140.771 193.911 141.119 193.737L166.119 181.237C166.484 181.055 166.798 180.786 167.035 180.453C167.272 180.121 167.424 179.736 167.478 179.331L172.478 141.831C172.551 141.286 172.442 140.732 172.168 140.255C171.894 139.779 171.47 139.405 170.963 139.194ZM162.697 177.356L140 188.706L117.303 177.356L112.731 143.062L140 131.709L167.269 143.062L162.697 177.356ZM137.813 145.287L125.313 167.787C125.153 168.075 125.052 168.391 125.015 168.717C124.978 169.043 125.005 169.374 125.096 169.689C125.186 170.005 125.338 170.3 125.543 170.557C125.747 170.814 126 171.028 126.288 171.187C126.575 171.347 126.891 171.448 127.217 171.485C127.543 171.522 127.874 171.495 128.189 171.404C128.505 171.314 128.8 171.162 129.057 170.957C129.314 170.753 129.528 170.5 129.688 170.212L133.125 164H146.875L150.313 170.212C150.472 170.5 150.686 170.753 150.943 170.957C151.2 171.162 151.495 171.314 151.811 171.404C152.126 171.495 152.457 171.522 152.783 171.485C153.109 171.448 153.425 171.347 153.713 171.187C154 171.028 154.253 170.814 154.457 170.557C154.662 170.3 154.814 170.005 154.904 169.689C154.995 169.374 155.022 169.043 154.985 168.717C154.948 168.391 154.847 168.075 154.688 167.787L142.188 145.287C141.971 144.897 141.654 144.571 141.27 144.344C140.885 144.117 140.447 143.998 140 143.998C139.553 143.998 139.115 144.117 138.73 144.344C138.346 144.571 138.029 144.897 137.813 145.287ZM144.084 159H135.916L140 151.647L144.084 159Z" fill="black" fill-opacity="0.4"/>
<path d="M542.963 313.194L512.963 300.694C512.658 300.565 512.331 300.499 512 300.499C511.669 300.499 511.342 300.565 511.038 300.694L481.038 313.194C480.53 313.405 480.106 313.779 479.832 314.255C479.558 314.732 479.449 315.286 479.522 315.831L484.522 353.331C484.576 353.736 484.728 354.121 484.965 354.453C485.202 354.786 485.516 355.055 485.881 355.237L510.881 367.737C511.229 367.911 511.612 368.002 512 368.002C512.388 368.002 512.771 367.911 513.119 367.737L538.119 355.237C538.484 355.055 538.798 354.786 539.035 354.453C539.272 354.121 539.424 353.736 539.478 353.331L544.478 315.831C544.551 315.286 544.442 314.732 544.168 314.255C543.894 313.779 543.47 313.405 542.963 313.194ZM534.697 351.356L512 362.706L489.303 351.356L484.731 317.062L512 305.709L539.269 317.062L534.697 351.356ZM509.813 319.287L497.313 341.787C497.153 342.075 497.052 342.391 497.015 342.717C496.978 343.043 497.005 343.374 497.096 343.689C497.186 344.005 497.338 344.3 497.543 344.557C497.747 344.814 498 345.028 498.288 345.187C498.575 345.347 498.891 345.448 499.217 345.485C499.543 345.522 499.874 345.495 500.189 345.404C500.505 345.314 500.8 345.162 501.057 344.957C501.314 344.753 501.528 344.5 501.688 344.212L505.125 338H518.875L522.313 344.212C522.472 344.5 522.686 344.753 522.943 344.957C523.2 345.162 523.495 345.314 523.811 345.404C524.126 345.495 524.457 345.522 524.783 345.485C525.109 345.448 525.425 345.347 525.713 345.187C526 345.028 526.253 344.814 526.457 344.557C526.662 344.3 526.814 344.005 526.904 343.689C526.995 343.374 527.022 343.043 526.985 342.717C526.948 342.391 526.847 342.075 526.688 341.787L514.188 319.287C513.971 318.897 513.654 318.571 513.27 318.344C512.885 318.117 512.447 317.998 512 317.998C511.553 317.998 511.115 318.117 510.73 318.344C510.346 318.571 510.029 318.897 509.813 319.287ZM516.084 333H507.916L512 325.647L516.084 333Z" fill="black" fill-opacity="0.4"/>
<g clip-path="url(#clip4_20_2)">
<path d="M342.097 168.65C342.861 166.185 343.106 163.588 342.817 161.024C342.527 158.459 341.71 155.983 340.416 153.75C340.196 153.37 339.88 153.054 339.5 152.835C339.12 152.615 338.689 152.5 338.25 152.5C335.338 152.494 332.465 153.169 329.861 154.471C327.256 155.773 324.992 157.667 323.25 160H315.75C314.008 157.667 311.744 155.773 309.139 154.471C306.535 153.169 303.662 152.494 300.75 152.5C300.311 152.5 299.88 152.615 299.5 152.835C299.12 153.054 298.804 153.37 298.584 153.75C297.29 155.983 296.473 158.459 296.183 161.024C295.894 163.588 296.139 166.185 296.903 168.65C295.359 171.346 294.531 174.393 294.5 177.5V180C294.505 184.23 296.041 188.315 298.823 191.501C301.606 194.688 305.447 196.759 309.638 197.334C307.927 199.523 306.998 202.222 307 205V207.5H299.5C297.511 207.5 295.603 206.71 294.197 205.303C292.79 203.897 292 201.989 292 200C292 198.359 291.677 196.733 291.048 195.216C290.42 193.7 289.5 192.322 288.339 191.161C287.178 190 285.8 189.08 284.284 188.452C282.767 187.823 281.142 187.5 279.5 187.5C278.837 187.5 278.201 187.763 277.732 188.232C277.263 188.701 277 189.337 277 190C277 190.663 277.263 191.299 277.732 191.768C278.201 192.237 278.837 192.5 279.5 192.5C281.489 192.5 283.397 193.29 284.803 194.697C286.21 196.103 287 198.011 287 200C287 203.315 288.317 206.495 290.661 208.839C293.005 211.183 296.185 212.5 299.5 212.5H307V217.5C307 218.163 307.263 218.799 307.732 219.268C308.201 219.737 308.837 220 309.5 220C310.163 220 310.799 219.737 311.268 219.268C311.737 218.799 312 218.163 312 217.5V205C312 203.011 312.79 201.103 314.197 199.697C315.603 198.29 317.511 197.5 319.5 197.5C321.489 197.5 323.397 198.29 324.803 199.697C326.21 201.103 327 203.011 327 205V217.5C327 218.163 327.263 218.799 327.732 219.268C328.201 219.737 328.837 220 329.5 220C330.163 220 330.799 219.737 331.268 219.268C331.737 218.799 332 218.163 332 217.5V205C332.002 202.222 331.073 199.523 329.362 197.334C333.553 196.759 337.394 194.688 340.177 191.501C342.959 188.315 344.495 184.23 344.5 180V177.5C344.469 174.393 343.641 171.346 342.097 168.65ZM339.5 180C339.5 183.315 338.183 186.495 335.839 188.839C333.495 191.183 330.315 192.5 327 192.5H312C308.685 192.5 305.505 191.183 303.161 188.839C300.817 186.495 299.5 183.315 299.5 180V177.5C299.531 175 300.279 172.562 301.656 170.475C301.913 170.137 302.079 169.738 302.139 169.318C302.2 168.898 302.152 168.469 302 168.072C301.349 166.393 301.035 164.601 301.078 162.8C301.12 161 301.517 159.225 302.247 157.578C304.293 157.798 306.263 158.476 308.011 159.561C309.76 160.646 311.242 162.111 312.347 163.847C312.572 164.199 312.882 164.489 313.248 164.691C313.615 164.892 314.026 164.998 314.444 165H324.553C324.973 165 325.386 164.894 325.754 164.693C326.122 164.491 326.433 164.2 326.659 163.847C327.764 162.111 329.246 160.646 330.995 159.561C332.743 158.476 334.713 157.798 336.759 157.578C337.488 159.225 337.884 161 337.925 162.801C337.967 164.602 337.652 166.393 337 168.072C336.849 168.465 336.798 168.889 336.853 169.307C336.907 169.724 337.065 170.122 337.312 170.463C338.703 172.549 339.463 174.993 339.5 177.5V180Z" fill="black" fill-opacity="0.4"/>
</g>
<path d="M233.5 327.5H168.5C167.174 327.5 165.902 328.027 164.964 328.964C164.027 329.902 163.5 331.174 163.5 332.5V367.5C163.5 368.826 164.027 370.098 164.964 371.036C165.902 371.973 167.174 372.5 168.5 372.5H233.5C234.826 372.5 236.098 371.973 237.036 371.036C237.973 370.098 238.5 368.826 238.5 367.5V332.5C238.5 331.174 237.973 329.902 237.036 328.964C236.098 328.027 234.826 327.5 233.5 327.5ZM233.5 367.5H168.5V332.5H233.5V367.5ZM201 342.5V347.5H203.5C204.163 347.5 204.799 347.763 205.268 348.232C205.737 348.701 206 349.337 206 350C206 350.663 205.737 351.299 205.268 351.768C204.799 352.237 204.163 352.5 203.5 352.5H201V357.5H206C206.663 357.5 207.299 357.763 207.768 358.232C208.237 358.701 208.5 359.337 208.5 360C208.5 360.663 208.237 361.299 207.768 361.768C207.299 362.237 206.663 362.5 206 362.5H198.5C197.837 362.5 197.201 362.237 196.732 361.768C196.263 361.299 196 360.663 196 360V340C196 339.337 196.263 338.701 196.732 338.232C197.201 337.763 197.837 337.5 198.5 337.5H206C206.663 337.5 207.299 337.763 207.768 338.232C208.237 338.701 208.5 339.337 208.5 340C208.5 340.663 208.237 341.299 207.768 341.768C207.299 342.237 206.663 342.5 206 342.5H201ZM228.406 340.678L222.781 360.678C222.633 361.202 222.318 361.664 221.884 361.993C221.45 362.322 220.92 362.5 220.375 362.5C219.83 362.5 219.3 362.322 218.866 361.993C218.432 361.664 218.117 361.202 217.969 360.678L212.344 340.678C212.167 340.041 212.25 339.36 212.574 338.783C212.899 338.207 213.438 337.783 214.075 337.604C214.711 337.424 215.393 337.504 215.97 337.826C216.548 338.148 216.974 338.686 217.156 339.322L220.375 350.766L223.594 339.322C223.682 339.005 223.831 338.708 224.034 338.449C224.237 338.19 224.489 337.973 224.776 337.812C225.063 337.65 225.379 337.547 225.706 337.508C226.033 337.469 226.364 337.494 226.681 337.584C226.998 337.673 227.294 337.824 227.552 338.028C227.811 338.232 228.026 338.485 228.186 338.773C228.347 339.06 228.449 339.376 228.486 339.703C228.524 340.03 228.497 340.362 228.406 340.678ZM181 337.5H178.5C177.837 337.5 177.201 337.763 176.732 338.232C176.263 338.701 176 339.337 176 340V360C176 360.663 176.263 361.299 176.732 361.768C177.201 362.237 177.837 362.5 178.5 362.5H181C183.652 362.5 186.196 361.446 188.071 359.571C189.946 357.696 191 355.152 191 352.5V347.5C191 344.848 189.946 342.304 188.071 340.429C186.196 338.554 183.652 337.5 181 337.5ZM186 352.5C186 353.826 185.473 355.098 184.536 356.036C183.598 356.973 182.326 357.5 181 357.5V342.5C182.326 342.5 183.598 343.027 184.536 343.964C185.473 344.902 186 346.174 186 347.5V352.5Z" fill="black" fill-opacity="0.4"/>
<path d="M398.5 264.5H333.5C332.174 264.5 330.902 265.027 329.964 265.964C329.027 266.902 328.5 268.174 328.5 269.5V304.5C328.5 305.826 329.027 307.098 329.964 308.036C330.902 308.973 332.174 309.5 333.5 309.5H398.5C399.826 309.5 401.098 308.973 402.036 308.036C402.973 307.098 403.5 305.826 403.5 304.5V269.5C403.5 268.174 402.973 266.902 402.036 265.964C401.098 265.027 399.826 264.5 398.5 264.5ZM398.5 304.5H333.5V269.5H398.5V304.5ZM366 279.5V284.5H368.5C369.163 284.5 369.799 284.763 370.268 285.232C370.737 285.701 371 286.337 371 287C371 287.663 370.737 288.299 370.268 288.768C369.799 289.237 369.163 289.5 368.5 289.5H366V294.5H371C371.663 294.5 372.299 294.763 372.768 295.232C373.237 295.701 373.5 296.337 373.5 297C373.5 297.663 373.237 298.299 372.768 298.768C372.299 299.237 371.663 299.5 371 299.5H363.5C362.837 299.5 362.201 299.237 361.732 298.768C361.263 298.299 361 297.663 361 297V277C361 276.337 361.263 275.701 361.732 275.232C362.201 274.763 362.837 274.5 363.5 274.5H371C371.663 274.5 372.299 274.763 372.768 275.232C373.237 275.701 373.5 276.337 373.5 277C373.5 277.663 373.237 278.299 372.768 278.768C372.299 279.237 371.663 279.5 371 279.5H366ZM393.406 277.678L387.781 297.678C387.633 298.202 387.318 298.664 386.884 298.993C386.45 299.322 385.92 299.5 385.375 299.5C384.83 299.5 384.3 299.322 383.866 298.993C383.432 298.664 383.117 298.202 382.969 297.678L377.344 277.678C377.167 277.041 377.25 276.36 377.574 275.783C377.899 275.207 378.438 274.783 379.075 274.604C379.711 274.424 380.393 274.504 380.97 274.826C381.548 275.148 381.974 275.686 382.156 276.322L385.375 287.766L388.594 276.322C388.682 276.005 388.831 275.708 389.034 275.449C389.237 275.19 389.489 274.973 389.776 274.812C390.063 274.65 390.379 274.547 390.706 274.508C391.033 274.469 391.364 274.494 391.681 274.584C391.998 274.673 392.294 274.824 392.552 275.028C392.811 275.232 393.026 275.485 393.186 275.773C393.347 276.06 393.449 276.376 393.486 276.703C393.524 277.03 393.497 277.362 393.406 277.678ZM346 274.5H343.5C342.837 274.5 342.201 274.763 341.732 275.232C341.263 275.701 341 276.337 341 277V297C341 297.663 341.263 298.299 341.732 298.768C342.201 299.237 342.837 299.5 343.5 299.5H346C348.652 299.5 351.196 298.446 353.071 296.571C354.946 294.696 356 292.152 356 289.5V284.5C356 281.848 354.946 279.304 353.071 277.429C351.196 275.554 348.652 274.5 346 274.5ZM351 289.5C351 290.826 350.473 292.098 349.536 293.036C348.598 293.973 347.326 294.5 346 294.5V279.5C347.326 279.5 348.598 280.027 349.536 280.964C350.473 281.902 351 283.174 351 284.5V289.5Z" fill="black" fill-opacity="0.4"/>
<path d="M403.5 352.5H388.5C387.837 352.5 387.201 352.763 386.732 353.232C386.263 353.701 386 354.337 386 355C386 355.663 386.263 356.299 386.732 356.768C387.201 357.237 387.837 357.5 388.5 357.5H393.5V395.266L370.688 353.794C370.472 353.402 370.155 353.076 369.77 352.848C369.386 352.621 368.947 352.5 368.5 352.5H348.5C347.837 352.5 347.201 352.763 346.732 353.232C346.263 353.701 346 354.337 346 355C346 355.663 346.263 356.299 346.732 356.768C347.201 357.237 347.837 357.5 348.5 357.5H353.5V402.5H348.5C347.837 402.5 347.201 402.763 346.732 403.232C346.263 403.701 346 404.337 346 405C346 405.663 346.263 406.299 346.732 406.768C347.201 407.237 347.837 407.5 348.5 407.5H363.5C364.163 407.5 364.799 407.237 365.268 406.768C365.737 406.299 366 405.663 366 405C366 404.337 365.737 403.701 365.268 403.232C364.799 402.763 364.163 402.5 363.5 402.5H358.5V364.734L381.312 406.206C381.528 406.598 381.845 406.924 382.23 407.152C382.614 407.379 383.053 407.5 383.5 407.5H396C396.663 407.5 397.299 407.237 397.768 406.768C398.237 406.299 398.5 405.663 398.5 405V357.5H403.5C404.163 357.5 404.799 357.237 405.268 356.768C405.737 356.299 406 355.663 406 355C406 354.337 405.737 353.701 405.268 353.232C404.799 352.763 404.163 352.5 403.5 352.5ZM360.228 357.5H367.022L391.772 402.5H384.978L360.228 357.5Z" fill="black" fill-opacity="0.4"/>
<path d="M67.5 354.5H52.5C51.837 354.5 51.2011 354.763 50.7322 355.232C50.2634 355.701 50 356.337 50 357C50 357.663 50.2634 358.299 50.7322 358.768C51.2011 359.237 51.837 359.5 52.5 359.5H57.5V397.266L34.6875 355.794C34.4718 355.402 34.1551 355.076 33.7704 354.848C33.3857 354.621 32.947 354.5 32.5 354.5H12.5C11.837 354.5 11.2011 354.763 10.7322 355.232C10.2634 355.701 10 356.337 10 357C10 357.663 10.2634 358.299 10.7322 358.768C11.2011 359.237 11.837 359.5 12.5 359.5H17.5V404.5H12.5C11.837 404.5 11.2011 404.763 10.7322 405.232C10.2634 405.701 10 406.337 10 407C10 407.663 10.2634 408.299 10.7322 408.768C11.2011 409.237 11.837 409.5 12.5 409.5H27.5C28.163 409.5 28.7989 409.237 29.2678 408.768C29.7366 408.299 30 407.663 30 407C30 406.337 29.7366 405.701 29.2678 405.232C28.7989 404.763 28.163 404.5 27.5 404.5H22.5V366.734L45.3125 408.206C45.5282 408.598 45.8449 408.924 46.2296 409.152C46.6143 409.379 47.053 409.5 47.5 409.5H60C60.663 409.5 61.2989 409.237 61.7678 408.768C62.2366 408.299 62.5 407.663 62.5 407V359.5H67.5C68.163 359.5 68.7989 359.237 69.2678 358.768C69.7366 358.299 70 357.663 70 357C70 356.337 69.7366 355.701 69.2678 355.232C68.7989 354.763 68.163 354.5 67.5 354.5ZM24.2281 359.5H31.0219L55.7719 404.5H48.9781L24.2281 359.5Z" fill="black" fill-opacity="0.4"/>
<path d="M97.5004 269.5V279.5C97.5004 280.163 97.237 280.799 96.7682 281.268C96.2994 281.737 95.6635 282 95.0004 282C94.3374 282 93.7015 281.737 93.2327 281.268C92.7638 280.799 92.5004 280.163 92.5004 279.5V275.534L91.8098 276.228C90.8411 277.281 79.2004 289.5 60.0004 289.5C40.3629 289.5 28.6317 276.716 28.1411 276.172C27.6977 275.677 27.4691 275.026 27.5058 274.362C27.5424 273.698 27.8412 273.076 28.3364 272.633C28.8316 272.189 29.4827 271.961 30.1464 271.997C30.8101 272.034 31.432 272.333 31.8754 272.828C31.9598 272.937 42.6567 284.5 60.0004 284.5C77.3442 284.5 88.0411 272.937 88.1473 272.825C88.1738 272.792 88.2019 272.761 88.2317 272.731L88.9661 272H85.0004C84.3374 272 83.7015 271.737 83.2327 271.268C82.7638 270.799 82.5004 270.163 82.5004 269.5C82.5004 268.837 82.7638 268.201 83.2327 267.732C83.7015 267.263 84.3374 267 85.0004 267H95.0004C95.6635 267 96.2994 267.263 96.7682 267.732C97.237 268.201 97.5004 268.837 97.5004 269.5ZM70.0004 246.541V243.25C70.0021 240.722 69.1524 238.267 67.5883 236.282C66.0242 234.296 63.8369 232.895 61.3791 232.304C58.9212 231.713 56.3361 231.968 54.0404 233.026C51.7448 234.084 49.8725 235.885 48.7254 238.137C48.4238 238.728 47.8999 239.174 47.269 239.379C46.6381 239.583 45.9519 239.528 45.3614 239.227C44.7709 238.925 44.3244 238.401 44.1201 237.77C43.9159 237.139 43.9706 236.453 44.2723 235.862C45.93 232.61 48.6347 230.01 51.9503 228.482C55.2659 226.955 58.9994 226.588 62.549 227.441C66.0985 228.295 69.2573 230.319 71.5161 233.186C73.775 236.054 75.0024 239.599 75.0004 243.25V272C75.0004 272.663 74.7371 273.299 74.2682 273.768C73.7994 274.237 73.1635 274.5 72.5004 274.5C71.8374 274.5 71.2015 274.237 70.7327 273.768C70.2638 273.299 70.0004 272.663 70.0004 272V269.959C67.7037 272.169 64.8078 273.655 61.6731 274.232C58.5383 274.808 55.3032 274.45 52.3704 273.202C49.4375 271.954 46.9365 269.872 45.1785 267.213C43.4204 264.554 42.4831 261.437 42.4831 258.25C42.4831 255.063 43.4204 251.946 45.1785 249.287C46.9365 246.628 49.4375 244.545 52.3704 243.297C55.3032 242.049 58.5383 241.691 61.6731 242.268C64.8078 242.845 67.7037 244.331 70.0004 246.541ZM70.0004 258.25C70.0004 256.025 69.3406 253.85 68.1045 252C66.8683 250.15 65.1113 248.708 63.0556 247.856C61 247.005 58.738 246.782 56.5557 247.216C54.3734 247.65 52.3688 248.722 50.7955 250.295C49.2222 251.868 48.1507 253.873 47.7166 256.055C47.2825 258.237 47.5053 260.499 48.3568 262.555C49.2083 264.611 50.6502 266.368 52.5003 267.604C54.3503 268.84 56.5254 269.5 58.7504 269.5C60.2278 269.5 61.6907 269.209 63.0556 268.644C64.4205 268.078 65.6607 267.25 66.7054 266.205C67.7501 265.16 68.5787 263.92 69.1441 262.555C69.7095 261.19 70.0004 259.727 70.0004 258.25Z" fill="black" fill-opacity="0.4"/>
<path d="M311.5 81.4999V91.4999C311.5 92.163 311.237 92.7989 310.768 93.2677C310.299 93.7366 309.663 93.9999 309 93.9999C308.337 93.9999 307.702 93.7366 307.233 93.2677C306.764 92.7989 306.5 92.163 306.5 91.4999V87.5343L305.81 88.2281C304.841 89.2812 293.2 101.5 274 101.5C254.363 101.5 242.632 88.7156 242.141 88.1718C241.698 87.6766 241.469 87.0255 241.506 86.3618C241.542 85.6981 241.841 85.0762 242.336 84.6328C242.832 84.1893 243.483 83.9608 244.146 83.9975C244.81 84.0341 245.432 84.3329 245.875 84.8281C245.96 84.9374 256.657 96.4999 274 96.4999C291.344 96.4999 302.041 84.9374 302.147 84.8249C302.174 84.7922 302.202 84.7609 302.232 84.7312L302.966 83.9999H299C298.337 83.9999 297.702 83.7366 297.233 83.2677C296.764 82.7989 296.5 82.163 296.5 81.4999C296.5 80.8369 296.764 80.201 297.233 79.7322C297.702 79.2633 298.337 78.9999 299 78.9999H309C309.663 78.9999 310.299 79.2633 310.768 79.7322C311.237 80.201 311.5 80.8369 311.5 81.4999ZM284 58.5406V55.2499C284.002 52.7221 283.152 50.2674 281.588 48.2816C280.024 46.2958 277.837 44.8946 275.379 44.3039C272.921 43.7133 270.336 43.9676 268.04 45.026C265.745 46.0843 263.873 47.8849 262.725 50.1374C262.424 50.728 261.9 51.1745 261.269 51.3787C260.638 51.5829 259.952 51.5282 259.361 51.2265C258.771 50.9248 258.324 50.4009 258.12 49.77C257.916 49.1391 257.971 48.453 258.272 47.8624C259.93 44.6098 262.635 42.0102 265.95 40.4825C269.266 38.9548 272.999 38.5881 276.549 39.4414C280.098 40.2948 283.257 42.3185 285.516 45.1864C287.775 48.0543 289.002 51.5993 289 55.2499V83.9999C289 84.663 288.737 85.2989 288.268 85.7677C287.799 86.2366 287.163 86.4999 286.5 86.4999C285.837 86.4999 285.202 86.2366 284.733 85.7677C284.264 85.2989 284 84.663 284 83.9999V81.9593C281.704 84.1693 278.808 85.6551 275.673 86.2318C272.538 86.8084 269.303 86.4505 266.37 85.2025C263.438 83.9545 260.936 81.8715 259.178 79.2129C257.42 76.5542 256.483 73.4373 256.483 70.2499C256.483 67.0626 257.42 63.9457 259.178 61.287C260.936 58.6284 263.438 56.5454 266.37 55.2974C269.303 54.0494 272.538 53.6915 275.673 54.2681C278.808 54.8448 281.704 56.3306 284 58.5406ZM284 70.2499C284 68.0249 283.341 65.8498 282.104 63.9998C280.868 62.1497 279.111 60.7078 277.056 59.8563C275 59.0048 272.738 58.782 270.556 59.2161C268.373 59.6502 266.369 60.7217 264.795 62.295C263.222 63.8683 262.151 65.8729 261.717 68.0552C261.283 70.2375 261.505 72.4995 262.357 74.5551C263.208 76.6108 264.65 78.3678 266.5 79.604C268.35 80.8401 270.525 81.4999 272.75 81.4999C274.228 81.4999 275.691 81.209 277.056 80.6436C278.421 80.0782 279.661 79.2496 280.705 78.2049C281.75 77.1602 282.579 75.92 283.144 74.5551C283.709 73.1902 284 71.7273 284 70.2499Z" fill="black" fill-opacity="0.4"/>
<path d="M576.5 172.5V182.5C576.5 183.163 576.237 183.799 575.768 184.268C575.299 184.737 574.663 185 574 185C573.337 185 572.702 184.737 572.233 184.268C571.764 183.799 571.5 183.163 571.5 182.5V178.534L570.81 179.228C569.841 180.281 558.2 192.5 539 192.5C519.363 192.5 507.632 179.716 507.141 179.172C506.698 178.677 506.469 178.026 506.506 177.362C506.542 176.698 506.841 176.076 507.336 175.633C507.832 175.189 508.483 174.961 509.146 174.997C509.81 175.034 510.432 175.333 510.875 175.828C510.96 175.937 521.657 187.5 539 187.5C556.344 187.5 567.041 175.937 567.147 175.825C567.174 175.792 567.202 175.761 567.232 175.731L567.966 175H564C563.337 175 562.702 174.737 562.233 174.268C561.764 173.799 561.5 173.163 561.5 172.5C561.5 171.837 561.764 171.201 562.233 170.732C562.702 170.263 563.337 170 564 170H574C574.663 170 575.299 170.263 575.768 170.732C576.237 171.201 576.5 171.837 576.5 172.5ZM549 149.541V146.25C549.002 143.722 548.152 141.267 546.588 139.282C545.024 137.296 542.837 135.895 540.379 135.304C537.921 134.713 535.336 134.968 533.04 136.026C530.745 137.084 528.873 138.885 527.725 141.137C527.424 141.728 526.9 142.174 526.269 142.379C525.638 142.583 524.952 142.528 524.361 142.227C523.771 141.925 523.324 141.401 523.12 140.77C522.916 140.139 522.971 139.453 523.272 138.862C524.93 135.61 527.635 133.01 530.95 131.482C534.266 129.955 537.999 129.588 541.549 130.441C545.098 131.295 548.257 133.319 550.516 136.186C552.775 139.054 554.002 142.599 554 146.25V175C554 175.663 553.737 176.299 553.268 176.768C552.799 177.237 552.163 177.5 551.5 177.5C550.837 177.5 550.202 177.237 549.733 176.768C549.264 176.299 549 175.663 549 175V172.959C546.704 175.169 543.808 176.655 540.673 177.232C537.538 177.808 534.303 177.45 531.37 176.202C528.438 174.954 525.936 172.872 524.178 170.213C522.42 167.554 521.483 164.437 521.483 161.25C521.483 158.063 522.42 154.946 524.178 152.287C525.936 149.628 528.438 147.545 531.37 146.297C534.303 145.049 537.538 144.691 540.673 145.268C543.808 145.845 546.704 147.331 549 149.541ZM549 161.25C549 159.025 548.341 156.85 547.104 155C545.868 153.15 544.111 151.708 542.056 150.856C540 150.005 537.738 149.782 535.556 150.216C533.373 150.65 531.369 151.722 529.795 153.295C528.222 154.868 527.151 156.873 526.717 159.055C526.283 161.237 526.505 163.499 527.357 165.555C528.208 167.611 529.65 169.368 531.5 170.604C533.35 171.84 535.525 172.5 537.75 172.5C539.228 172.5 540.691 172.209 542.056 171.644C543.421 171.078 544.661 170.25 545.705 169.205C546.75 168.16 547.579 166.92 548.144 165.555C548.709 164.19 549 162.727 549 161.25Z" fill="black" fill-opacity="0.4"/>
<path d="M651.675 273.5H630.787C630.409 275.739 629.527 277.863 628.208 279.712C626.889 281.561 625.168 283.086 623.174 284.172C621.18 285.259 618.965 285.878 616.696 285.984C614.428 286.09 612.165 285.68 610.078 284.784C607.992 283.888 606.136 282.529 604.65 280.812C603.165 279.094 602.089 277.061 601.504 274.867C600.919 272.673 600.839 270.374 601.271 268.145C601.704 265.915 602.637 263.813 604 261.997C604.197 261.734 604.444 261.513 604.727 261.346C605.009 261.179 605.322 261.069 605.647 261.022C605.973 260.976 606.304 260.994 606.622 261.076C606.94 261.158 607.239 261.301 607.501 261.498C607.764 261.696 607.985 261.943 608.153 262.225C608.32 262.508 608.43 262.821 608.476 263.146C608.522 263.471 608.504 263.802 608.422 264.12C608.341 264.438 608.197 264.737 608 265C606.695 266.728 605.993 268.835 606 271C606 273.652 607.053 276.196 608.929 278.071C610.804 279.946 613.348 281 616 281C618.652 281 621.196 279.946 623.071 278.071C624.946 276.196 626 273.652 626 271C626 270.337 626.263 269.701 626.732 269.232C627.201 268.763 627.837 268.5 628.5 268.5H651.675C652.225 267.547 653.075 266.802 654.092 266.381C655.108 265.959 656.236 265.886 657.299 266.17C658.362 266.455 659.302 267.083 659.972 267.956C660.642 268.829 661.005 269.899 661.005 271C661.005 272.101 660.642 273.171 659.972 274.044C659.302 274.917 658.362 275.545 657.299 275.83C656.236 276.115 655.108 276.041 654.092 275.619C653.075 275.198 652.225 274.453 651.675 273.5ZM616 276C616.866 276 617.717 275.776 618.47 275.348C619.223 274.921 619.852 274.305 620.296 273.561C620.74 272.817 620.982 271.971 621.001 271.105C621.019 270.239 620.812 269.384 620.4 268.622L631.578 250.453C631.925 249.889 632.034 249.21 631.88 248.565C631.727 247.92 631.323 247.363 630.759 247.016C629.423 246.193 628.299 245.068 627.478 243.73C626.658 242.393 626.163 240.881 626.035 239.317C625.907 237.753 626.149 236.181 626.74 234.728C627.332 233.275 628.258 231.981 629.442 230.952C630.627 229.922 632.037 229.186 633.558 228.803C635.08 228.42 636.671 228.4 638.201 228.745C639.732 229.09 641.16 229.791 642.37 230.79C643.58 231.789 644.537 233.059 645.166 234.497C645.431 235.105 645.927 235.582 646.544 235.825C647.161 236.067 647.85 236.054 648.458 235.789C649.066 235.524 649.543 235.028 649.786 234.411C650.028 233.793 650.015 233.105 649.75 232.497C648.849 230.438 647.498 228.608 645.795 227.142C644.092 225.676 642.082 224.611 639.912 224.026C637.743 223.441 635.47 223.351 633.261 223.762C631.052 224.174 628.963 225.076 627.15 226.403C625.336 227.73 623.844 229.447 622.784 231.428C621.723 233.409 621.121 235.603 621.022 237.848C620.923 240.093 621.329 242.331 622.212 244.398C623.094 246.464 624.429 248.306 626.119 249.788L616.137 266C616.091 266 616.047 266 616 266C614.674 266 613.402 266.527 612.464 267.464C611.527 268.402 611 269.674 611 271C611 272.326 611.527 273.598 612.464 274.536C613.402 275.473 614.674 276 616 276ZM656 256C654.072 256 652.163 256.37 650.375 257.091L640.4 240.875C640.92 239.912 641.109 238.805 640.939 237.723C640.769 236.642 640.249 235.647 639.459 234.889C638.668 234.132 637.651 233.655 636.564 233.532C635.476 233.408 634.378 233.645 633.438 234.206C632.498 234.767 631.768 235.621 631.36 236.636C630.952 237.652 630.889 238.773 631.18 239.829C631.471 240.884 632.1 241.814 632.97 242.478C633.841 243.141 634.905 243.5 636 243.5H636.137L647.319 261.672C647.667 262.236 648.224 262.638 648.869 262.791C649.513 262.944 650.192 262.835 650.756 262.488C652.072 261.676 653.559 261.181 655.099 261.041C656.639 260.901 658.19 261.12 659.631 261.681C661.072 262.242 662.363 263.129 663.403 264.273C664.443 265.417 665.204 266.787 665.625 268.275C666.047 269.762 666.117 271.328 665.832 272.847C665.546 274.367 664.912 275.799 663.979 277.033C663.046 278.266 661.84 279.266 660.456 279.954C659.071 280.643 657.546 281.001 656 281C655.337 281 654.701 281.263 654.232 281.732C653.763 282.201 653.5 282.837 653.5 283.5C653.5 284.163 653.763 284.799 654.232 285.268C654.701 285.737 655.337 286 656 286C659.978 286 663.793 284.42 666.606 281.607C669.42 278.794 671 274.978 671 271C671 267.022 669.42 263.206 666.606 260.393C663.793 257.58 659.978 256 656 256Z" fill="black" fill-opacity="0.4"/>
<path d="M644.675 84.5H623.787C623.409 86.7392 622.527 88.8633 621.208 90.712C619.889 92.5607 618.168 94.0858 616.174 95.1723C614.18 96.2589 611.965 96.8784 609.696 96.9843C607.428 97.0902 605.165 96.6796 603.078 95.7836C600.992 94.8875 599.136 93.5293 597.65 91.8115C596.165 90.0937 595.089 88.061 594.504 85.8668C593.919 83.6726 593.839 81.3741 594.271 79.1447C594.704 76.9153 595.637 74.8132 597 72.9969C597.197 72.7343 597.444 72.513 597.727 72.3458C598.009 72.1786 598.322 72.0688 598.647 72.0225C598.973 71.9762 599.304 71.9944 599.622 72.0761C599.94 72.1577 600.239 72.3013 600.501 72.4985C600.764 72.6956 600.985 72.9426 601.153 73.2253C601.32 73.508 601.43 73.8209 601.476 74.146C601.522 74.4712 601.504 74.8022 601.422 75.1204C601.341 75.4385 601.197 75.7374 601 76C599.695 77.7277 598.993 79.8352 599 82C599 84.6522 600.053 87.1957 601.929 89.0711C603.804 90.9465 606.348 92 609 92C611.652 92 614.196 90.9465 616.071 89.0711C617.946 87.1957 619 84.6522 619 82C619 81.337 619.263 80.7011 619.732 80.2323C620.201 79.7634 620.837 79.5 621.5 79.5H644.675C645.225 78.5468 646.075 77.8018 647.092 77.3806C648.108 76.9594 649.236 76.8855 650.299 77.1704C651.362 77.4553 652.302 78.083 652.972 78.9562C653.642 79.8294 654.005 80.8994 654.005 82C654.005 83.1007 653.642 84.1706 652.972 85.0438C652.302 85.9171 651.362 86.5448 650.299 86.8297C649.236 87.1145 648.108 87.0406 647.092 86.6194C646.075 86.1982 645.225 85.4532 644.675 84.5ZM609 87C609.866 87.0003 610.717 86.7757 611.47 86.3481C612.223 85.9206 612.852 85.3048 613.296 84.561C613.74 83.8172 613.982 82.971 614.001 82.1052C614.019 81.2394 613.812 80.3837 613.4 79.6219L624.578 61.4531C624.925 60.8886 625.034 60.2095 624.88 59.565C624.727 58.9204 624.323 58.3632 623.759 58.0156C622.423 57.193 621.299 56.0675 620.478 54.7301C619.658 53.3927 619.163 51.8809 619.035 50.317C618.907 48.7531 619.149 47.1809 619.74 45.7277C620.332 44.2745 621.258 42.981 622.442 41.9517C623.627 40.9225 625.037 40.1864 626.558 39.803C628.08 39.4196 629.671 39.3997 631.201 39.7449C632.732 40.09 634.16 40.7905 635.37 41.7898C636.58 42.789 637.537 44.059 638.166 45.4969C638.431 46.1048 638.927 46.5825 639.544 46.8248C640.161 47.0672 640.85 47.0543 641.458 46.7891C642.066 46.5239 642.543 46.028 642.786 45.4106C643.028 44.7932 643.015 44.1048 642.75 43.4969C641.849 41.4382 640.498 39.6082 638.795 38.142C637.092 36.6757 635.082 35.6108 632.912 35.0258C630.743 34.4408 628.47 34.3507 626.261 34.7622C624.052 35.1736 621.963 36.0761 620.15 37.403C618.336 38.7298 616.844 40.4471 615.784 42.4281C614.723 44.409 614.121 46.6029 614.022 48.8478C613.923 51.0926 614.329 53.331 615.212 55.3976C616.094 57.4642 617.429 59.3062 619.119 60.7875L609.137 77C609.091 77 609.047 77 609 77C607.674 77 606.402 77.5268 605.464 78.4645C604.527 79.4022 604 80.6739 604 82C604 83.3261 604.527 84.5979 605.464 85.5356C606.402 86.4732 607.674 87 609 87ZM649 67C647.072 67.0002 645.163 67.3704 643.375 68.0907L633.4 51.875C633.92 50.9118 634.109 49.8047 633.939 48.7234C633.769 47.6422 633.249 46.6466 632.459 45.8894C631.668 45.1322 630.651 44.6553 629.564 44.5319C628.476 44.4085 627.378 44.6453 626.438 45.2061C625.498 45.7669 624.768 46.6206 624.36 47.6363C623.952 48.6519 623.889 49.7734 624.18 50.8286C624.471 51.8838 625.1 52.8144 625.97 53.4776C626.841 54.1408 627.905 54.5 629 54.5H629.137L640.319 72.6719C640.667 73.2355 641.224 73.638 641.869 73.7909C642.513 73.9438 643.192 73.8347 643.756 73.4875C645.072 72.6761 646.559 72.181 648.099 72.0411C649.639 71.9011 651.19 72.1202 652.631 72.681C654.072 73.2418 655.363 74.1291 656.403 75.2732C657.443 76.4173 658.204 77.787 658.625 79.2747C659.047 80.7624 659.117 82.3275 658.832 83.8471C658.546 85.3667 657.912 86.7994 656.979 88.0326C656.046 89.2658 654.84 90.2659 653.456 90.9543C652.071 91.6427 650.546 92.0006 649 92C648.337 92 647.701 92.2634 647.232 92.7323C646.763 93.2011 646.5 93.837 646.5 94.5C646.5 95.1631 646.763 95.799 647.232 96.2678C647.701 96.7366 648.337 97 649 97C652.978 97 656.793 95.4197 659.606 92.6066C662.42 89.7936 664 85.9783 664 82C664 78.0218 662.42 74.2065 659.606 71.3934C656.793 68.5804 652.978 67 649 67Z" fill="black" fill-opacity="0.4"/>
</g>
<defs>
<clipPath id="clip0_20_2">
<rect width="831" height="449" fill="white"/>
</clipPath>
<clipPath id="clip1_20_2">
<rect width="80" height="80" fill="white" transform="translate(751 15)"/>
</clipPath>
<clipPath id="clip2_20_2">
<rect width="80" height="80" fill="white" transform="translate(10 17)"/>
</clipPath>
<clipPath id="clip3_20_2">
<rect width="80" height="80" fill="white" transform="translate(730 342)"/>
</clipPath>
<clipPath id="clip4_20_2">
<rect width="80" height="80" fill="white" transform="translate(277 145)"/>
</clipPath>
</defs>
</svg>
